<svg width="780" height="500" viewBox="0 0 780 500" fill="none" xmlns="http://www.w3.org/2000/svg">
<g clip-path="url(#clip0)">
<path d="M572.09 255.52C570.225 256.159 568.359 257.434 566.492 258.71L560.892 262.539C559.026 263.816 557.782 265.093 557.16 267.007C555.915 268.283 555.915 270.198 555.915 271.475C555.915 272.752 555.915 274.029 556.537 275.305C557.159 276.58 557.159 277.219 557.781 278.496C558.403 279.771 559.025 279.771 559.647 280.41C560.269 281.048 560.892 281.048 562.136 281.048C564.001 281.048 565.246 280.41 567.113 279.772L572.714 275.943V255.52H572.09V255.52Z" fill="white"/>
<path d="M502.4 238.92C501.156 237.005 499.912 235.09 498.669 233.815C497.425 232.538 495.558 231.9 493.69 231.9C492.447 231.9 491.203 231.9 489.959 232.538C488.714 233.177 487.47 233.815 486.848 234.453C485.604 235.091 484.982 236.368 483.738 237.006C482.493 238.282 481.872 238.921 481.249 240.197V271.468C481.249 273.383 481.249 274.659 481.872 275.936C482.493 277.212 483.116 278.489 484.359 279.766C485.603 281.041 486.847 281.679 488.092 282.318C489.336 282.957 491.202 282.957 493.069 282.957C494.936 282.957 496.179 282.318 498.046 281.042C499.29 279.767 501.157 278.489 501.78 275.937C502.401 273.384 503.645 271.469 504.267 268.278C504.889 265.088 505.511 262.534 505.511 258.705C505.511 254.238 505.511 250.41 504.889 247.219C504.267 244.028 503.645 241.473 502.4 238.92V238.92Z" fill="white"/>
<path d="M315.86 257.21H341.98L328.92 228.49L315.86 257.21Z" fill="white"/>
<path d="M736.04 0H41.46C18.573 0 0.00195312 19.051 0.00195312 42.553V458.443C0.00195312 481.95 18.564 500.997 41.46 500.997H736.04C758.928 500.997 777.499 481.946 777.499 458.443V42.553C777.499 19.047 758.937 0 736.04 0ZM248.84 285.49C248.84 285.49 242.619 284.851 214.623 275.278V275.279C207.157 272.727 196.581 268.897 184.138 264.43C190.982 252.304 196.582 238.264 200.314 222.948H162.364V208.908H209.024V201.887H162.364V178.273H143.699C140.589 178.273 140.589 181.464 140.589 181.464V201.247H93.306V208.905H140.589V224.222H102.017V231.88H177.295C174.806 241.453 171.073 250.388 166.719 258.684C142.455 250.388 116.325 244.006 100.149 247.835C89.573 250.388 82.729 254.855 78.997 259.961C60.333 282.297 73.398 316.761 111.971 316.761C134.99 316.761 156.765 303.358 173.562 282.297C199.071 295.062 248.841 316.122 248.841 316.122V317.397C248.841 334.629 234.532 348.669 217.735 348.669H87.085C69.665 348.669 55.978 334.63 55.978 317.398V183.378C55.978 166.147 70.288 152.106 87.085 152.106H217.735C235.154 152.106 248.841 166.146 248.841 183.377V285.487L248.84 285.49ZM157.231 273.525C143.543 291.396 126.124 302.884 108.704 302.884C78.219 302.884 69.509 279.269 84.44 265.867C89.417 261.398 98.128 259.484 103.104 258.846C121.147 256.933 137.323 263.953 157.231 273.525V273.525ZM356.911 289.759L345.713 265.506H312.116L300.918 289.759H286.609L328.293 201.049C328.293 201.049 329.536 198.496 332.024 198.496H337.625V198.497L378.686 289.758H356.911V289.759ZM406.504 290.485H386.596V203.69C386.596 201.137 387.84 199.861 390.95 199.861H406.504V290.485V290.485ZM443.832 289.891H423.924V224.157C423.924 221.605 425.168 220.328 428.278 220.328H443.832V289.891V289.891ZM433.944 210.609C428.447 210.609 423.991 206.561 423.991 201.567C423.991 196.574 428.447 192.525 433.944 192.525C439.442 192.525 443.899 196.574 443.899 201.567C443.899 206.561 439.442 210.609 433.944 210.609ZM524.79 268.92C522.924 273.386 521.058 277.854 517.947 281.045C514.836 284.235 511.724 287.427 507.369 289.342C503.015 291.255 498.66 291.894 493.682 291.894H486.839C484.973 291.894 483.108 291.255 481.239 290.618V313.593H461.33V229.99C460.708 221.693 463.819 221.693 468.175 221.693H481.239V228.075C483.727 226.16 486.216 224.245 489.327 223.608C492.438 222.331 495.549 221.693 499.903 221.693C504.257 221.693 507.991 222.331 511.102 224.246C514.833 226.161 517.323 228.076 519.811 231.267C522.299 234.458 524.165 237.649 525.411 241.478C526.655 245.308 527.276 249.137 527.276 253.603C527.277 259.346 526.656 264.451 524.79 268.92V268.92ZM593.234 290.617H573.326V285.512C572.082 286.788 570.839 287.427 570.217 288.064L566.483 289.979C565.239 290.618 563.995 291.255 562.129 291.255C560.262 291.894 558.397 291.894 556.528 291.894C553.418 291.894 550.929 291.255 548.44 290.618C545.953 289.979 544.086 288.704 542.22 286.789C540.353 285.513 539.108 283.599 538.486 281.045C537.864 279.13 537.242 276.578 537.242 274.024C537.242 271.471 537.864 268.919 538.486 267.004C539.108 265.089 540.974 263.174 542.219 261.26C543.463 259.345 545.95 258.069 547.818 256.791C550.306 255.515 552.173 254.239 555.285 252.963C557.772 251.688 560.261 251.05 563.373 249.772C565.86 249.134 568.971 247.858 571.46 247.22L573.948 246.582V239.561C573.948 237.646 573.948 235.732 573.325 233.817L571.46 229.988C570.838 229.35 569.594 228.073 568.973 228.073C567.729 227.435 566.484 227.435 565.239 227.435C565.239 227.435 554.663 227.435 545.331 235.732L540.977 228.711C539.111 229.987 550.31 221.69 565.24 221.69V221.691C570.218 221.691 573.951 222.329 577.683 222.968C580.793 223.606 583.904 224.883 586.394 226.797C588.881 228.712 590.125 230.626 591.37 232.541C592.614 235.093 593.236 237.646 593.236 240.199V290.617H593.234ZM640.251 297C639.007 299.553 634.03 312.955 620.343 312.955V312.954H607.278L606.656 300.828C606.656 300.828 622.831 301.466 627.809 295.084C629.674 292.53 630.918 285.512 630.918 285.512L598.568 221.692H620.342L640.872 263.175L658.914 221.691H673.223L640.251 297V297ZM701.486 168.39H694.643V188.175H692.778V168.39H686.555V167.114H701.486V168.39V168.39ZM721.928 188.812H719.441V169.666L717.576 174.772L713.221 187.537H711.977L707.622 174.772L705.757 169.666V188.812H703.89V167.113H706.999L711.354 179.238L713.22 183.706C713.841 182.43 714.464 180.515 715.086 179.238L719.44 167.113H721.928V188.812V188.812Z" fill="white"/>
</g>
<defs>
<clipPath id="clip0">
<rect width="780" height="500" fill="white"/>
</clipPath>
</defs>
</svg>
