<svg width="780" height="500" viewBox="0 0 780 500" fill="none" xmlns="http://www.w3.org/2000/svg">
<g clip-path="url(#clip0)">
<path d="M199.87 124.06L173.559 187.382L144.915 124.059H109.193V212.438L71.9688 124.06H39.4518L0.258789 217.404H24.0288L32.5248 196.584H78.0948L86.5048 217.404H131.02V144.233L162.839 217.404H182.057L213.792 144.298L213.875 217.404H236.31V124.06H199.87V124.06ZM70.1898 177.128H40.3148L55.2108 139.915L70.1898 177.126V177.128Z" fill="white"/>
<path d="M325.74 217.41H252.62V124.06H325.74V143.5H274.51V160.33H324.51V179.46H274.51V198.1H325.74V217.41Z" fill="white"/>
<path d="M428.82 149.2C428.82 138.788 424.668 132.7 417.744 128.531C410.668 124.361 402.428 124.06 391.242 124.06H340.902V217.404H362.786V183.452H386.281C394.161 183.452 399.036 184.165 402.233 187.448C406.215 191.939 405.688 200.017 405.688 205.634L405.772 217.405H427.847V199.067C427.847 190.731 427.313 186.583 424.223 181.941C422.276 179.221 418.186 175.939 413.396 174.08C419.075 171.77 428.82 164.082 428.82 149.2V149.2ZM400.198 162.309C397.191 164.17 393.634 164.232 389.372 164.232H362.784V143.498H389.734C393.547 143.498 397.529 143.674 400.112 145.183C402.952 146.543 404.709 149.436 404.709 153.434C404.709 157.514 403.037 160.797 400.198 162.309V162.309Z" fill="white"/>
<path d="M463.854 124.06H441.52V217.404H463.854V124.06Z" fill="white"/>
<path d="M700.52 124.07V189.079L662.046 124.07H628.723V212.36L591.667 124.07H558.873L528.026 197.477H518.196C512.435 197.477 506.312 196.356 502.943 192.664C498.875 187.953 496.923 180.742 496.923 170.742C496.923 160.957 499.485 153.529 503.216 149.598C507.56 145.28 512.07 144.068 520.058 144.068H540.801V124.068H519.612C504.529 124.068 493.449 127.504 486.374 134.953C476.967 144.953 474.576 157.609 474.576 171.452C474.576 188.427 478.576 199.162 486.268 207.089C493.897 215.014 507.366 217.412 518.005 217.412H543.615L551.878 196.592H597.343L605.861 217.412H650.434V147.353L691.919 217.412H722.935L722.936 217.413V124.071H700.52V124.07ZM589.88 177.134H559.671L574.733 139.921L589.88 177.134V177.134Z" fill="white"/>
<path d="M387.16 284.61H317.224L289.385 315.213L262.457 284.61H174.43V377.976H261.123L289.13 347.067L316.081 377.975H358.621V346.66H385.931C405.063 346.66 424.044 341.305 424.044 315.368C424.043 289.511 404.528 284.61 387.16 284.61V284.61ZM250.04 358.519H196.229V339.942H244.278V320.892H196.229V303.918H251.101L275.04 331.126L250.04 358.519ZM336.82 369.485L303.217 331.453L336.82 294.63V369.485V369.485ZM386.902 327.696H358.617V303.92H387.156C395.058 303.92 400.542 307.204 400.542 315.368C400.543 323.443 395.312 327.696 386.902 327.696V327.696Z" fill="white"/>
<path d="M534.57 284.61H607.62V303.92H556.37V320.89H606.37V339.94H556.37V358.52L607.62 358.6V377.98H534.57V284.61Z" fill="white"/>
<path d="M506.92 334.59C512.681 332.259 522.431 324.654 522.433 309.752C522.433 299.1 518.089 293.273 511.181 289.018C503.998 285.112 495.928 284.614 484.847 284.614H434.317V377.979H456.31V343.879H479.699C487.684 343.879 492.56 344.678 495.758 348.023C499.825 352.365 499.295 360.681 499.295 366.299V377.98H521.268V359.471C521.18 351.242 520.733 346.987 517.643 342.428C515.773 339.709 511.791 336.422 506.92 334.59V334.59ZM493.702 322.971C490.774 324.742 487.153 324.894 482.893 324.894H456.305V303.923H483.256C487.152 303.923 491.052 304.008 493.701 305.611C496.537 307.123 498.233 310.014 498.233 314.01C498.234 318.005 496.538 321.222 493.702 322.971V322.971Z" fill="white"/>
<path d="M691.2 328.73C695.462 333.226 697.747 338.903 697.747 348.512C697.747 368.598 685.435 377.973 663.364 377.973H620.735V357.952H663.192C667.344 357.952 670.288 357.393 672.131 355.641C673.637 354.196 674.716 352.098 674.716 349.551C674.716 346.83 673.549 344.671 672.046 343.377C670.372 341.951 668.064 341.305 664.252 341.305C643.784 340.592 618.151 341.951 618.151 312.405C618.151 298.863 626.498 284.609 649.443 284.609H693.32V304.481H653.172C649.192 304.481 646.604 304.632 644.402 306.167C642.006 307.68 641.116 309.924 641.116 312.885C641.116 316.407 643.151 318.805 645.905 319.839C648.214 320.657 650.695 320.898 654.424 320.898L666.204 321.222C678.088 321.517 686.243 323.613 691.2 328.73V328.73Z" fill="white"/>
<path d="M729.75 307.08C731.978 305.54 734.624 305.388 738.607 305.388H778.496V43.638C778.496 20.085 759.91 1 736.984 1H41.5042C18.5872 1 -0.00776563 20.089 -0.00776563 43.638V167.948L26.4972 105.863H83.5742L90.9252 121.285V105.864H157.85L172.491 139.59L186.747 105.864H399.227C408.884 105.864 417.572 107.704 423.945 113.488V105.864H482.104V113.488C492.122 107.877 504.521 105.863 518.628 105.863H602.906L610.725 121.285V105.863H673.117L681.632 121.285V105.864H742.436V236.444H680.998L669.387 216.691V236.444H592.715L584.388 215.649H565.511L556.996 236.444H517.209C501.597 236.444 489.731 232.677 482.103 228.497V236.444H387.53V206.813C387.53 202.631 386.807 202.396 384.329 202.309H380.792L380.876 236.445H198.016V220.308L191.448 236.51H153.252L146.684 220.545V236.443H73.1072L64.6972 215.648H45.8202L37.3882 236.443H-0.00676563V236.444H-0.00976562V460.364C-0.00976562 483.917 18.5752 503.001 41.5022 503.001H736.982C759.899 503.001 778.494 483.912 778.494 460.363V367.128L778.493 367.129V391.472C769.723 395.803 758.199 397.494 746.398 397.494H689.686V389.133C683.117 394.523 671.25 397.494 659.899 397.494H481.109V367.296C481.109 363.593 480.752 363.442 477.13 363.442H474.29V397.497H415.436V362.233C405.584 366.587 394.417 366.977 384.95 366.827H377.934V397.565L306.579 397.5L289.037 377.187L270.413 397.5H154.653V266.83H272.633L289.561 286.83L307.632 266.83H386.613C395.743 266.83 410.723 267.808 417.459 274.478V266.83H488.029C494.661 266.83 509.029 268.198 517.544 274.478V266.83H624.534V274.478C629.853 269.259 641.098 266.83 650.68 266.83H710.593V274.478C716.881 269.826 725.761 266.83 737.984 266.83H778.491V285.463H734.895C711.927 285.463 703.492 299.76 703.492 313.343C703.492 342.978 729.132 341.614 749.681 342.329C753.493 342.329 755.803 342.977 757.392 344.408C759.001 345.706 760.066 347.871 760.066 350.6C760.083 352.919 759.142 355.138 757.478 356.707C755.718 358.465 752.797 359.024 748.621 359.024H706.525V379.106H748.794C762.817 379.106 773.177 375.076 778.493 367.127V367.126H778.494V332.034C777.884 331.231 777.349 330.43 776.464 329.716C771.592 324.585 763.603 322.481 751.633 322.179L739.771 321.855C736.125 321.855 733.645 321.613 731.336 320.793C728.5 319.754 726.551 317.35 726.551 313.818C726.551 310.847 727.439 308.597 729.748 307.081L729.75 307.08Z" fill="white"/>
</g>
<defs>
<clipPath id="clip0">
<rect width="780" height="500" fill="white"/>
</clipPath>
</defs>
</svg>
