<svg width="780" height="500" viewBox="0 0 780 500" fill="none" xmlns="http://www.w3.org/2000/svg">
<path d="M740 0H40C17.909 0 0 17.909 0 40V460C0 482.092 17.909 500 40 500H740C762.092 500 780 482.092 780 460V40C780 17.909 762.092 0 740 0Z" fill="white"/>
<path d="M701.85 310.37V306.575H706.967V295.304H711.165L711.566 306.575H723.009L712.429 281.505L716.396 279.779L728.07 306.92V310.37H711.624V320.029H706.966V310.37H701.85V310.37ZM682.264 279.78C686.29 279.78 690.142 281.16 693.477 284.38L690.89 287.313C688.245 284.84 685.887 283.633 682.495 283.633C678.297 283.633 674.962 285.99 674.962 290.36C674.962 295.133 678.7 297.319 682.495 297.319H684.851L685.426 301.114H682.091C677.434 301.114 673.869 302.954 673.869 308.645C673.869 313.59 677.145 316.753 682.723 316.753C685.944 316.753 689.279 315.43 691.52 312.785L694.741 315.43C691.751 319.11 687.036 320.663 682.608 320.663C674.444 320.663 668.866 315.488 668.866 308.644C668.866 302.493 673.236 299.273 677.893 298.927C673.696 298.122 670.13 294.499 670.13 289.728C670.132 284.323 674.847 279.78 682.264 279.78V279.78ZM647.787 279.78C653.135 279.78 656.7 281.677 659.862 285.472L656.527 288.002C653.997 285.069 651.87 283.804 647.96 283.804C643.532 283.804 640.887 286.564 640.887 290.992C640.887 297.489 644.107 301.802 659.057 316.119V320.028H635.54L634.965 315.947H653.595C640.542 304.044 635.885 298.122 635.885 290.877C635.885 284.553 640.312 279.78 647.787 279.78V279.78ZM599.05 316.12H607.33V280.471H611.527L623.256 287.715L621.186 291.108L612.101 285.645V316.121H621.876V320.03H599.049V316.12H599.05ZM529.462 310.37V306.575H534.579V295.304H538.777L539.178 306.575H550.621L540.041 281.505L544.008 279.779L555.681 306.92V310.37H539.237V320.029H534.579V310.37H529.462V310.37ZM509.877 279.78C513.902 279.78 517.754 281.16 521.089 284.38L518.502 287.313C515.856 284.84 513.499 283.633 510.106 283.633C505.909 283.633 502.574 285.99 502.574 290.36C502.574 295.133 506.311 297.319 510.106 297.319H512.463L513.038 301.114H509.704C505.047 301.114 501.482 302.954 501.482 308.645C501.482 313.59 504.758 316.753 510.336 316.753C513.556 316.753 516.891 315.43 519.133 312.785L522.353 315.43C519.364 319.11 514.649 320.663 510.221 320.663C502.056 320.663 496.478 315.488 496.478 308.644C496.478 302.493 500.848 299.273 505.506 298.927C501.308 298.122 497.743 294.499 497.743 289.728C497.744 284.323 502.459 279.78 509.877 279.78V279.78ZM475.399 279.78C480.748 279.78 484.312 281.677 487.474 285.472L484.139 288.002C481.61 285.069 479.482 283.804 475.573 283.804C471.144 283.804 468.5 286.564 468.5 290.992C468.5 297.489 471.72 301.802 486.67 316.119V320.028H463.153L462.578 315.947H481.208C468.155 304.044 463.498 298.122 463.498 290.877C463.497 284.553 467.924 279.78 475.399 279.78V279.78ZM426.662 316.12H434.941V280.471H439.138L450.868 287.715L448.798 291.108L439.713 285.645V316.121H449.488V320.03H426.661V316.12H426.662ZM357.074 310.37V306.575H362.192V295.304H366.388L366.791 306.575H378.233L367.653 281.505L371.621 279.779L383.293 306.92V310.37H366.848V320.029H362.191V310.37H357.074V310.37ZM337.489 279.78C341.513 279.78 345.367 281.16 348.702 284.38L346.114 287.313C343.468 284.84 341.112 283.633 337.718 283.633C333.521 283.633 330.186 285.99 330.186 290.36C330.186 295.133 333.923 297.319 337.718 297.319H340.076L340.651 301.114H337.316C332.658 301.114 329.092 302.954 329.092 308.645C329.092 313.59 332.37 316.753 337.947 316.753C341.167 316.753 344.502 315.43 346.745 312.785L349.965 315.43C346.975 319.11 342.26 320.663 337.832 320.663C329.667 320.663 324.09 315.488 324.09 308.644C324.09 302.493 328.46 299.273 333.117 298.927C328.92 298.122 325.355 294.499 325.355 289.728C325.357 284.323 330.072 279.78 337.489 279.78V279.78ZM303.012 279.78C308.359 279.78 311.924 281.677 315.087 285.472L311.752 288.002C309.222 285.069 307.094 283.804 303.184 283.804C298.757 283.804 296.112 286.564 296.112 290.992C296.112 297.489 299.332 301.802 314.282 316.119V320.028H290.764L290.189 315.947H308.819C295.767 304.044 291.109 298.122 291.109 290.877C291.109 284.553 295.537 279.78 303.012 279.78V279.78ZM254.274 316.12H262.554V280.471H266.752L278.482 287.715L276.412 291.108L267.327 285.645V316.121H277.102V320.03H254.274V316.12V316.12ZM184.687 310.37V306.575H189.804V295.304H194.002L194.404 306.575H205.847L195.267 281.505L199.234 279.779L210.907 306.92V310.37H194.462V320.029H189.804V310.37H184.687V310.37ZM165.102 279.78C169.127 279.78 172.979 281.16 176.314 284.38L173.727 287.313C171.082 284.84 168.724 283.633 165.332 283.633C161.134 283.633 157.799 285.99 157.799 290.36C157.799 295.133 161.537 297.319 165.332 297.319H167.689L168.264 301.114H164.929C160.272 301.114 156.707 302.954 156.707 308.645C156.707 313.59 159.984 316.753 165.562 316.753C168.782 316.753 172.117 315.43 174.359 312.785L177.579 315.43C174.589 319.11 169.874 320.663 165.447 320.663C157.282 320.663 151.704 315.488 151.704 308.644C151.704 302.493 156.074 299.273 160.732 298.927C156.534 298.122 152.969 294.499 152.969 289.728C152.969 284.323 157.684 279.78 165.102 279.78V279.78ZM130.624 279.78C135.972 279.78 139.537 281.677 142.699 285.472L139.364 288.002C136.834 285.069 134.707 283.804 130.797 283.804C126.369 283.804 123.724 286.564 123.724 290.992C123.724 297.489 126.944 301.802 141.894 316.119V320.028H118.377L117.802 315.947H136.432C123.379 304.044 118.722 298.122 118.722 290.877C118.722 284.553 123.149 279.78 130.624 279.78V279.78ZM81.886 316.12H90.166V280.471H94.364L106.094 287.715L104.024 291.108L94.939 285.645V316.121H104.714V320.03H81.886V316.12V316.12Z" fill="#0C2074"/>
<path d="M728.53 391.94V389.246C725.991 388.999 724.22 388.589 723.218 388.016C722.215 387.429 721.467 386.056 720.972 383.896H718.199V411.747H721.949V391.941H728.53V391.94ZM706.264 391.94V389.246C703.726 388.999 701.955 388.589 700.952 388.016C699.949 387.429 699.2 386.056 698.706 383.896H695.932V411.747H699.682V391.941H706.264V391.94ZM675.484 411.745C675.353 409.336 674.858 407.24 673.999 405.456C673.126 403.672 671.434 402.051 668.921 400.593L665.171 398.425C663.491 397.448 662.313 396.615 661.636 395.925C660.569 394.844 660.034 393.608 660.034 392.214C660.034 390.586 660.522 389.297 661.499 388.347C662.476 387.383 663.777 386.901 665.405 386.901C667.813 386.901 669.48 387.813 670.405 389.636C670.899 390.613 671.173 391.967 671.224 393.698H674.799C674.76 391.264 674.311 389.278 673.451 387.741C671.928 385.034 669.239 383.679 665.385 383.679C662.182 383.679 659.845 384.545 658.373 386.276C656.889 388.008 656.145 389.936 656.145 392.058C656.145 394.298 656.933 396.212 658.509 397.8C659.42 398.725 661.055 399.845 663.411 401.16L666.087 402.643C667.363 403.346 668.365 404.016 669.095 404.655C670.398 405.788 671.217 407.045 671.555 408.425H656.284V411.745H675.484V411.745ZM644.077 412.507C647.384 412.507 649.786 411.602 651.284 409.792C652.768 407.969 653.511 405.756 653.511 403.152H649.839C649.683 404.961 649.344 406.276 648.823 407.096C647.911 408.568 646.264 409.303 643.882 409.303C642.032 409.303 640.548 408.808 639.429 407.819C638.309 406.83 637.749 405.553 637.749 403.991C637.749 402.064 638.341 400.717 639.525 399.948C640.698 399.179 642.332 398.796 644.428 398.796C644.662 398.796 644.903 398.803 645.15 398.816C645.385 398.816 645.627 398.823 645.874 398.836V395.732C645.509 395.77 645.203 395.796 644.956 395.81C644.709 395.823 644.441 395.83 644.156 395.83C642.84 395.83 641.759 395.621 640.913 395.203C639.428 394.474 638.685 393.172 638.685 391.298C638.685 389.904 639.18 388.83 640.17 388.074C641.159 387.319 642.312 386.941 643.627 386.941C645.97 386.941 647.591 387.722 648.49 389.285C648.984 390.146 649.264 391.369 649.33 392.958H652.806C652.806 390.875 652.39 389.104 651.556 387.646C650.124 385.041 647.605 383.738 643.998 383.738C641.146 383.738 638.939 384.377 637.377 385.652C635.815 386.916 635.033 388.752 635.033 391.16C635.033 392.879 635.495 394.273 636.42 395.341C636.993 396.005 637.735 396.526 638.646 396.903C637.175 397.307 636.03 398.089 635.209 399.248C634.376 400.394 633.959 401.8 633.959 403.467C633.959 406.136 634.838 408.311 636.596 409.99C638.354 411.669 640.848 412.507 644.077 412.507V412.507ZM616.167 404.616C615.933 406.621 615.001 408.008 613.374 408.776C612.541 409.167 611.577 409.362 610.484 409.362C608.4 409.362 606.856 408.698 605.853 407.37C604.851 406.042 604.349 404.57 604.349 402.956C604.349 401.003 604.949 399.492 606.146 398.425C607.332 397.357 608.757 396.823 610.424 396.823C611.635 396.823 612.676 397.057 613.549 397.526C614.408 397.995 615.144 398.646 615.756 399.479L618.803 399.303L616.673 384.244H602.143V387.643H614.038L615.228 395.415C614.578 394.92 613.959 394.549 613.374 394.302C612.332 393.872 611.127 393.657 609.761 393.657C607.196 393.657 605.021 394.483 603.237 396.136C601.454 397.79 600.561 399.887 600.561 402.426C600.561 405.07 601.381 407.401 603.022 409.418C604.65 411.437 607.254 412.445 610.835 412.445C613.113 412.445 615.132 411.806 616.889 410.531C618.634 409.242 619.611 407.269 619.819 404.613H616.167V404.616V404.616ZM587.964 395.495C586.414 395.495 585.203 395.065 584.331 394.206C583.458 393.334 583.021 392.299 583.021 391.102C583.021 390.059 583.438 389.102 584.271 388.231C585.105 387.358 586.375 386.921 588.081 386.921C589.773 386.921 590.998 387.358 591.753 388.231C592.508 389.102 592.886 390.125 592.886 391.296C592.886 392.611 592.398 393.64 591.421 394.382C590.444 395.124 589.292 395.495 587.964 395.495V395.495ZM587.749 409.343C586.121 409.343 584.773 408.906 583.706 408.034C582.625 407.148 582.085 405.834 582.085 404.089C582.085 402.279 582.639 400.905 583.745 399.968C584.851 399.031 586.27 398.562 588.003 398.562C589.683 398.562 591.057 399.044 592.123 400.007C593.178 400.958 593.706 402.279 593.706 403.972C593.706 405.43 593.225 406.694 592.261 407.761C591.284 408.816 589.78 409.343 587.749 409.343V409.343ZM592.749 396.843C593.726 396.426 594.487 395.938 595.034 395.378C596.062 394.336 596.577 392.982 596.577 391.315C596.577 389.232 595.821 387.442 594.31 385.946C592.8 384.448 590.659 383.698 587.885 383.698C585.202 383.698 583.1 384.409 581.576 385.829C580.053 387.235 579.291 388.882 579.291 390.768C579.291 392.514 579.733 393.926 580.619 395.007C581.113 395.619 581.882 396.218 582.924 396.804C581.765 397.337 580.853 397.95 580.189 398.64C578.953 399.943 578.335 401.635 578.335 403.718C578.335 406.179 579.162 408.269 580.814 409.989C582.468 411.694 584.805 412.547 587.827 412.547C590.548 412.547 592.852 411.812 594.741 410.34C596.616 408.856 597.553 406.707 597.553 403.895C597.553 402.242 597.15 400.816 596.342 399.618C595.535 398.405 594.338 397.481 592.749 396.843V396.843Z" fill="#0C2074"/>
<path d="M541.3 392.97V390.275C538.761 390.028 536.989 389.618 535.988 389.045C534.985 388.459 534.236 387.086 533.742 384.924H530.969V412.776H534.719V392.973H541.301V392.97H541.3ZM512.472 413.536C515.779 413.536 518.181 412.631 519.679 410.821C521.163 408.998 521.906 406.785 521.906 404.18H518.234C518.078 405.991 517.739 407.305 517.218 408.125C516.306 409.597 514.658 410.332 512.277 410.332C510.427 410.332 508.944 409.837 507.824 408.848C506.704 407.859 506.143 406.582 506.143 405.02C506.143 403.093 506.736 401.746 507.921 400.977C509.093 400.208 510.727 399.825 512.823 399.825C513.057 399.825 513.299 399.832 513.546 399.845C513.78 399.845 514.021 399.852 514.268 399.866V396.76C513.905 396.799 513.598 396.824 513.35 396.838C513.104 396.852 512.837 396.858 512.55 396.858C511.235 396.858 510.154 396.65 509.307 396.232C507.824 395.504 507.081 394.202 507.081 392.327C507.081 390.933 507.575 389.859 508.565 389.104C509.554 388.349 510.707 387.971 512.021 387.971C514.366 387.971 515.987 388.752 516.885 390.315C517.38 391.174 517.66 392.399 517.725 393.987H521.202C521.202 391.903 520.785 390.133 519.952 388.675C518.519 386.071 516 384.769 512.392 384.769C509.541 384.769 507.334 385.408 505.773 386.683C504.21 387.946 503.428 389.783 503.428 392.191C503.428 393.91 503.89 395.303 504.815 396.372C505.388 397.035 506.13 397.556 507.042 397.934C505.57 398.337 504.425 399.119 503.604 400.277C502.771 401.424 502.354 402.831 502.354 404.498C502.354 407.166 503.234 409.341 504.992 411.02C506.749 412.697 509.242 413.537 512.472 413.536V413.536ZM499.347 412.774C499.216 410.365 498.722 408.268 497.863 406.485C496.991 404.702 495.298 403.081 492.785 401.622L489.035 399.454C487.354 398.477 486.177 397.643 485.5 396.954C484.432 395.873 483.897 394.637 483.897 393.244C483.897 391.616 484.386 390.327 485.363 389.376C486.34 388.413 487.641 387.931 489.268 387.931C491.678 387.931 493.344 388.843 494.268 390.665C494.764 391.642 495.037 392.996 495.088 394.727H498.663C498.624 392.291 498.175 390.307 497.315 388.77C495.792 386.062 493.102 384.708 489.249 384.708C486.046 384.708 483.708 385.574 482.237 387.306C480.753 389.037 480.01 390.964 480.01 393.086C480.01 395.326 480.798 397.24 482.373 398.829C483.284 399.754 484.918 400.874 487.275 402.188L489.951 403.672C491.226 404.375 492.229 405.046 492.959 405.684C494.261 406.817 495.081 408.074 495.419 409.455H480.146V412.775L499.347 412.774V412.774ZM474.503 392.97V390.275C471.964 390.028 470.192 389.618 469.191 389.045C468.188 388.459 467.439 387.086 466.945 384.924H464.172V412.776H467.922V392.973H474.504V392.97H474.503ZM434.581 413.536C437.888 413.536 440.29 412.631 441.788 410.821C443.271 408.998 444.014 406.785 444.014 404.18H440.343C440.187 405.991 439.848 407.305 439.327 408.125C438.416 409.597 436.768 410.332 434.386 410.332C432.536 410.332 431.052 409.837 429.932 408.848C428.812 407.859 428.252 406.582 428.252 405.02C428.252 403.093 428.845 401.746 430.03 400.977C431.202 400.208 432.836 399.825 434.931 399.825C435.166 399.825 435.407 399.832 435.655 399.845C435.889 399.845 436.131 399.852 436.378 399.866V396.76C436.014 396.799 435.707 396.824 435.46 396.838C435.213 396.852 434.945 396.858 434.659 396.858C433.344 396.858 432.263 396.65 431.417 396.232C429.933 395.504 429.19 394.202 429.19 392.327C429.19 390.933 429.684 389.859 430.674 389.104C431.663 388.349 432.816 387.971 434.131 387.971C436.475 387.971 438.096 388.752 438.994 390.315C439.488 391.174 439.768 392.399 439.834 393.987H443.31C443.31 391.903 442.894 390.133 442.06 388.675C440.628 386.071 438.109 384.769 434.502 384.769C431.65 384.769 429.443 385.408 427.881 386.683C426.319 387.946 425.537 389.783 425.537 392.191C425.537 393.91 425.999 395.303 426.924 396.372C427.497 397.035 428.238 397.556 429.151 397.934C427.679 398.337 426.534 399.119 425.713 400.277C424.88 401.424 424.463 402.831 424.463 404.498C424.463 407.166 425.342 409.341 427.099 411.02C428.858 412.697 431.352 413.537 434.581 413.536V413.536ZM409.483 402.872V390.196L418.448 402.872H409.483ZM409.425 412.774V405.939H421.691V402.501L408.879 384.728H405.91V402.873H401.789V405.939H405.91V412.775H409.425V412.774ZM395.499 405.646C395.265 407.651 394.333 409.038 392.706 409.806C391.873 410.197 390.909 410.392 389.815 410.392C387.731 410.392 386.188 409.728 385.185 408.4C384.183 407.072 383.681 405.6 383.681 403.986C383.681 402.032 384.281 400.522 385.478 399.456C386.664 398.388 388.089 397.853 389.756 397.853C390.967 397.853 392.008 398.087 392.881 398.556C393.74 399.025 394.476 399.676 395.088 400.509L398.135 400.333L396.005 385.274H381.475V388.672H393.37L394.56 396.445C393.91 395.95 393.291 395.579 392.706 395.332C391.664 394.902 390.46 394.687 389.093 394.687C386.528 394.687 384.353 395.514 382.57 397.167C380.786 398.82 379.893 400.917 379.893 403.456C379.893 406.1 380.713 408.43 382.354 410.448C383.982 412.467 386.586 413.475 390.167 413.475C392.445 413.475 394.464 412.837 396.222 411.562C397.967 410.272 398.944 408.299 399.153 405.643H395.499V405.646V405.646ZM373.233 405.646C372.999 407.651 372.068 409.038 370.44 409.806C369.606 410.197 368.643 410.392 367.549 410.392C365.466 410.392 363.922 409.728 362.919 408.4C361.917 407.072 361.416 405.6 361.416 403.986C361.416 402.032 362.015 400.522 363.213 399.456C364.398 398.388 365.823 397.853 367.49 397.853C368.7 397.853 369.742 398.087 370.615 398.556C371.474 399.025 372.211 399.676 372.822 400.509L375.869 400.333L373.74 385.274H359.209V388.672H371.103L372.295 396.445C371.644 395.95 371.025 395.579 370.439 395.332C369.398 394.902 368.194 394.687 366.827 394.687C364.262 394.687 362.087 395.514 360.304 397.167C358.52 398.82 357.628 400.917 357.628 403.456C357.628 406.1 358.448 408.43 360.088 410.448C361.716 412.467 364.32 413.475 367.9 413.475C370.179 413.475 372.198 412.837 373.956 411.562C375.7 410.272 376.677 408.299 376.886 405.643H373.233V405.646Z" fill="#0C2074"/>
<path d="M0 154H780V52H0V154Z" fill="white"/>
<path d="M46 177H608V257H46V177Z" fill="#0C2074" fill-opacity="0.5"/>
<path d="M528.85 230.6H521.651V199.6H518L507.8 205.9L509.6 208.85L517.5 204.1V230.6H509V234H528.85V230.6V230.6ZM546.43 199C541.781 199 538.68 200.65 535.93 203.95L538.83 206.15C541.03 203.6 542.88 202.5 546.28 202.5C550.13 202.5 552.429 204.9 552.429 208.75C552.429 214.4 549.629 218.15 536.629 230.6V234H557.079L557.579 230.45H541.379C552.73 220.1 556.779 214.95 556.779 208.65C556.78 203.15 552.93 199 546.43 199V199ZM576.41 199C572.91 199 569.559 200.2 566.66 203L568.91 205.55C571.21 203.4 573.26 202.35 576.21 202.35C579.86 202.35 582.76 204.4 582.76 208.2C582.76 212.35 579.51 214.25 576.21 214.25H574.16L573.66 217.55H576.559C580.61 217.55 583.709 219.15 583.709 224.1C583.709 228.4 580.859 231.15 576.009 231.15C573.209 231.15 570.309 230 568.36 227.7L565.559 230C568.16 233.2 572.259 234.55 576.11 234.55C583.21 234.55 588.059 230.05 588.059 224.1C588.059 218.75 584.259 215.95 580.209 215.65C583.859 214.95 586.959 211.8 586.959 207.65C586.96 202.95 582.86 199 576.41 199V199Z" fill="white"/>
<path d="M71 357.5H154C167.807 357.5 179 368.693 179 382.5V427.5C179 441.307 167.807 452.5 154 452.5H71C57.193 452.5 46 441.307 46 427.5V382.5C46 368.693 57.193 357.5 71 357.5Z" fill="#0C2074" fill-opacity="0.5"/>
</svg>
