<svg width="780" height="500" viewBox="0 0 780 500" fill="none" xmlns="http://www.w3.org/2000/svg">
<g clip-path="url(#clip0)">
<path d="M0 42.426C0 18.994 18.571 0 41.458 0H736.038C758.935 0 777.497 18.99 777.497 42.426V457.076C777.497 480.508 758.926 499.502 736.038 499.502H41.458C18.562 499.502 0 480.513 0 457.076V42.426H0ZM606.38 251.286C606.38 145.856 520.358 72.976 426.11 73.016H345C249.624 72.981 171.12 145.878 171.12 251.286C171.12 347.718 249.624 426.946 345 426.486H426.111C520.358 426.948 606.381 347.697 606.381 251.286H606.38ZM345.38 87.626C258.227 87.654 187.61 160.067 187.58 249.436C187.601 338.792 258.222 411.196 345.38 411.226C432.553 411.199 503.19 338.792 503.2 249.436C503.186 160.065 432.552 87.656 345.38 87.626ZM245.36 249.436C245.442 205.764 272.05 168.523 309.571 153.725V345.125C272.051 330.334 245.441 293.115 245.36 249.436ZM381.18 345.169V153.719C418.714 168.482 445.365 205.743 445.432 249.437C445.365 293.144 418.714 330.378 381.18 345.169V345.171V345.169Z" fill="white"/>
</g>
<defs>
<clipPath id="clip0">
<rect width="780" height="500" fill="white"/>
</clipPath>
</defs>
</svg>
