<svg width="780" height="500" viewBox="0 0 780 500" fill="none" xmlns="http://www.w3.org/2000/svg">
<g clip-path="url(#clip0)">
<path d="M90.6819 228.13C83.7599 234.132 74.7659 236.752 60.5279 236.752H54.6169V165.005H60.5289C74.7659 165.005 83.4039 167.454 90.6829 173.779C98.3019 180.298 102.887 190.395 102.887 200.79C102.887 211.204 98.3029 221.611 90.6819 228.13Z" fill="white"/>
<path d="M682.92 196.57H676.482V163.71H683.269C696.99 163.71 704.449 169.235 704.449 179.793C704.449 190.701 696.99 196.57 682.92 196.57Z" fill="white"/>
<path d="M736.99 0H41.51C18.583 0 -0.00195312 18.99 -0.00195312 42.426V457.076C-0.00195312 480.508 18.593 499.502 41.51 499.502H736.99C759.916 499.502 778.502 480.513 778.502 457.076V42.426C778.501 18.994 759.906 0 736.989 0L736.99 0ZM654.472 146.62H687.143C712.556 146.62 727.12 158.341 727.12 178.654C727.12 195.266 717.985 206.169 701.389 209.413L736.948 255.121H709.851L679.355 211.534H676.482V255.121H654.472V146.621V146.62ZM577.393 146.62H639.879V165.005H599.409V189.087H638.386V207.464H599.409V236.753H639.879V255.121H577.393V146.621V146.62ZM482.903 146.453L513.029 219.331L543.544 146.453H567.429L518.629 257.733H506.772L458.836 146.453H482.903V146.453ZM345.503 200.815C345.503 168.936 372.409 143.131 405.599 143.131C438.787 143.131 465.693 168.937 465.693 200.815V200.853C465.693 232.732 438.788 258.573 405.599 258.573C372.408 258.573 345.503 232.731 345.503 200.853V200.815V200.815ZM251.076 200.652C251.076 169.104 277.84 143.874 311.222 143.874C320.701 143.874 328.653 145.827 338.328 150.539V175.438C329.163 166.833 321.211 163.232 310.698 163.232C290.034 163.232 273.782 179.664 273.782 200.497C273.782 222.466 289.532 237.922 311.724 237.922C321.713 237.922 329.516 234.505 338.328 226.038V250.951C328.307 255.481 320.185 257.271 310.698 257.271C277.147 257.271 251.076 232.543 251.076 200.652V200.652ZM214.841 211.585C212.625 210.276 208.235 208.327 199.609 205.405C178.916 198.25 171.816 190.6 171.816 175.653C171.816 157.896 187.062 144.562 207.048 144.562C219.433 144.562 230.765 148.632 240.241 156.592L228.711 171.092C222.972 164.913 217.546 162.306 210.945 162.306C201.448 162.306 194.529 167.499 194.529 174.332C194.529 180.192 198.413 183.295 211.635 187.993C236.699 196.796 244.127 204.6 244.127 221.838C244.127 242.842 228.063 257.463 205.166 257.463C188.4 257.463 176.21 251.121 166.059 236.81L180.291 223.644C185.367 233.068 193.831 238.113 204.341 238.113C214.17 238.113 221.447 231.599 221.447 222.81C221.447 218.254 219.242 214.347 214.841 211.585ZM105.081 242.596C94.238 251.243 81.883 255.12 64.775 255.12H32.603V146.62H64.945C100.679 146.62 125.587 168.925 125.587 200.946C125.587 216.913 117.967 232.351 105.081 242.596V242.596ZM135.726 146.62H157.761V255.12H135.727L135.726 146.62ZM769.016 454.42C769.016 474.328 753.214 490.469 733.722 490.469H155.112C552.212 420.494 769.022 264.149 769.022 264.149V454.419L769.016 454.42Z" fill="white"/>
</g>
<defs>
<clipPath id="clip0">
<rect width="780" height="500" fill="white"/>
</clipPath>
</defs>
</svg>
