<svg width="780" height="500" viewBox="0 0 780 500" fill="none" xmlns="http://www.w3.org/2000/svg">
<g clip-path="url(#clip0)">
<path d="M0 42.505C0 19.021 18.604 0 41.573 0H737.927C760.897 0 779.5 19.021 779.5 42.505V457.995C779.5 481.477 760.896 500.5 737.927 500.5H41.573C18.604 500.5 0 481.479 0 457.995V42.505Z" fill="white"/>
<path d="M170.45 186.15C177.15 183.951 184.35 182.65 191.85 182.65C224.45 182.65 251.65 205.85 257.85 236.55L304.05 227.15C293.45 174.85 247.25 135.55 191.85 135.55C179.15 135.55 166.95 137.65 155.55 141.45L170.45 186.15V186.15ZM115.95 335.85L147.15 300.55C132.691 287.751 124.423 269.361 124.45 250.05C124.45 229.95 133.25 211.95 147.15 199.65L115.95 164.35C92.2501 185.35 77.3501 215.951 77.3501 250.05C77.3501 284.149 92.2501 314.85 115.95 335.85V335.85ZM257.75 263.55C251.45 294.25 224.35 317.35 191.75 317.35C184.25 317.35 177.05 316.15 170.35 313.85L155.35 358.55C166.75 362.35 178.95 364.45 191.65 364.45C247.05 364.45 293.15 325.149 303.85 272.95L257.75 263.55V263.55ZM457.75 295.149C450.15 302.549 439.75 307.049 428.352 306.95C420.55 306.849 413.25 304.45 407.152 300.551L391.852 324.95C402.352 331.551 414.652 335.45 427.952 335.649C447.352 335.95 464.952 328.349 477.852 315.751L457.75 295.149ZM430.05 195.95C391.55 195.349 359.75 226.149 359.152 264.75C358.952 279.25 363.152 292.75 370.452 303.95L496.952 249.85C489.853 219.35 462.752 196.45 430.052 195.95H430.05ZM388.152 270.149C387.952 268.549 387.852 266.849 387.952 265.149C388.352 242.45 407.052 224.251 429.752 224.649C442.152 224.849 453.052 230.45 460.552 239.25L388.152 270.149ZM536.652 164.449V299.349L560.05 309.049L548.951 335.649L525.851 326.049C520.651 323.749 517.151 320.349 514.451 316.449C511.851 312.449 509.951 307.049 509.951 299.749V164.449H536.652ZM621.052 226.749C625.154 225.349 629.552 224.648 634.052 224.648C653.952 224.648 670.552 238.749 674.354 257.548L702.552 251.848C696.052 219.949 667.854 195.949 634.052 195.949C626.354 195.949 618.854 197.249 611.952 199.549L621.052 226.749V226.749ZM587.853 318.148L606.953 296.648C598.453 289.148 593.053 278.148 593.053 265.848C593.053 253.548 598.453 242.648 606.953 235.048L587.853 213.548C573.353 226.348 564.251 245.048 564.251 265.848C564.251 286.648 573.353 305.349 587.853 318.148ZM674.353 274.049C670.551 292.749 653.953 306.949 634.051 306.949C629.451 306.949 625.153 306.249 621.051 304.847L611.951 332.148C618.951 334.449 626.351 335.749 634.151 335.749C667.951 335.749 696.151 311.749 702.651 279.849L674.353 274.049Z" fill="#0C2074" fill-opacity="0.5"/>
</g>
<defs>
<clipPath id="clip0">
<rect width="780" height="500" fill="white"/>
</clipPath>
</defs>
</svg>
