<svg width="780" height="500" viewBox="0 0 780 500" fill="none" xmlns="http://www.w3.org/2000/svg">
<path d="M740 0H40C17.9086 0 0 17.9086 0 40V460C0 482.091 17.9086 500 40 500H740C762.091 500 780 482.091 780 460V40C780 17.9086 762.091 0 740 0Z" fill="white"/>
<path d="M138.707 153.58H69.033C57.8089 153.58 48.71 162.679 48.71 173.903V232.936C48.71 244.16 57.8089 253.259 69.033 253.259H138.707C149.931 253.259 159.03 244.16 159.03 232.936V173.903C159.03 162.679 149.931 153.58 138.707 153.58Z" fill="#0C2074"/>
<path d="M78.1021 310.37V306.575H72.9851V295.305H68.7871L68.3851 306.575H56.9421L67.5221 281.505L63.5551 279.78L51.8821 306.92V310.37H68.3271V320.03H72.9851V310.37H78.1021ZM97.6881 279.78C93.6631 279.78 89.8101 281.16 86.4751 284.38L89.0631 287.313C91.7081 284.84 94.0651 283.633 97.4581 283.633C101.655 283.633 104.99 285.99 104.99 290.36C104.99 295.133 101.253 297.318 97.4581 297.318H95.1001L94.5251 301.113H97.8601C102.518 301.113 106.083 302.953 106.083 308.645C106.083 313.59 102.805 316.753 97.2281 316.753C94.0081 316.753 90.6731 315.43 88.4301 312.785L85.2101 315.43C88.2001 319.11 92.9151 320.663 97.3431 320.663C105.508 320.663 111.085 315.488 111.085 308.645C111.085 302.493 106.715 299.273 102.058 298.928C106.255 298.123 109.82 294.5 109.82 289.728C109.82 284.323 105.105 279.78 97.6881 279.78V279.78ZM132.165 279.78C126.818 279.78 123.253 281.678 120.09 285.473L123.425 288.003C125.955 285.07 128.083 283.805 131.993 283.805C136.42 283.805 139.065 286.565 139.065 290.993C139.065 297.49 135.845 301.803 120.895 316.12V320.03H144.413L144.988 315.948H126.358C139.41 304.045 144.068 298.123 144.068 290.878C144.068 284.553 139.64 279.78 132.165 279.78V279.78ZM180.903 316.12H172.623V280.47H168.425L156.695 287.715L158.765 291.108L167.85 285.645V316.12H158.075V320.03H180.903V316.12V316.12ZM250.49 310.37V306.575H245.373V295.305H241.175L240.773 306.575H229.33L239.91 281.505L235.943 279.78L224.27 306.92V310.37H240.715V320.03H245.373V310.37H250.49V310.37ZM270.075 279.78C266.05 279.78 262.198 281.16 258.863 284.38L261.45 287.313C264.095 284.84 266.453 283.633 269.845 283.633C274.043 283.633 277.378 285.99 277.378 290.36C277.378 295.133 273.64 297.318 269.845 297.318H267.488L266.913 301.113H270.248C274.905 301.113 278.47 302.953 278.47 308.645C278.47 313.59 275.193 316.753 269.615 316.753C266.395 316.753 263.06 315.43 260.818 312.785L257.598 315.43C260.588 319.11 265.303 320.663 269.73 320.663C277.895 320.663 283.473 315.488 283.473 308.645C283.473 302.493 279.103 299.273 274.445 298.928C278.643 298.123 282.208 294.5 282.208 289.728C282.208 284.323 277.493 279.78 270.075 279.78V279.78ZM304.553 279.78C299.205 279.78 295.64 281.678 292.478 285.473L295.813 288.003C298.343 285.07 300.47 283.805 304.38 283.805C308.808 283.805 311.453 286.565 311.453 290.993C311.453 297.49 308.233 301.803 293.283 316.12V320.03H316.8L317.375 315.948H298.745C311.798 304.045 316.455 298.123 316.455 290.878C316.455 284.553 312.028 279.78 304.553 279.78V279.78ZM353.29 316.12H345.01V280.47H340.813L329.083 287.715L331.153 291.108L340.238 285.645V316.12H330.463V320.03H353.29V316.12V316.12ZM422.878 310.37V306.575H417.76V295.305H413.563L413.16 306.575H401.718L412.298 281.505L408.33 279.78L396.658 306.92V310.37H413.103V320.03H417.76V310.37H422.878V310.37ZM442.463 279.78C438.438 279.78 434.585 281.16 431.25 284.38L433.838 287.313C436.483 284.84 438.84 283.633 442.233 283.633C446.43 283.633 449.765 285.99 449.765 290.36C449.765 295.133 446.028 297.318 442.233 297.318H439.875L439.3 301.113H442.635C447.293 301.113 450.858 302.953 450.858 308.645C450.858 313.59 447.58 316.753 442.003 316.753C438.783 316.753 435.448 315.43 433.205 312.785L429.985 315.43C432.975 319.11 437.69 320.663 442.118 320.663C450.283 320.663 455.86 315.488 455.86 308.645C455.86 302.493 451.49 299.273 446.833 298.928C451.03 298.123 454.595 294.5 454.595 289.728C454.595 284.323 449.88 279.78 442.463 279.78V279.78ZM476.94 279.78C471.593 279.78 468.028 281.678 464.865 285.473L468.2 288.003C470.73 285.07 472.858 283.805 476.768 283.805C481.195 283.805 483.84 286.565 483.84 290.993C483.84 297.49 480.62 301.803 465.67 316.12V320.03H489.188L489.763 315.948H471.133C484.185 304.045 488.843 298.123 488.843 290.878C488.843 284.553 484.415 279.78 476.94 279.78V279.78ZM525.678 316.12H517.398V280.47H513.2L501.47 287.715L503.54 291.108L512.625 285.645V316.12H502.85V320.03H525.678V316.12V316.12ZM595.266 310.37V306.575H590.148V295.305H585.951L585.548 306.575H574.106L584.686 281.505L580.718 279.78L569.046 306.92V310.37H585.491V320.03H590.148V310.37H595.266V310.37ZM614.85 279.78C610.826 279.78 606.973 281.16 603.638 284.38L606.226 287.313C608.871 284.84 611.228 283.633 614.621 283.633C618.818 283.633 622.153 285.99 622.153 290.36C622.153 295.133 618.416 297.318 614.621 297.318H612.263L611.688 301.113H615.023C619.681 301.113 623.246 302.953 623.246 308.645C623.246 313.59 619.968 316.753 614.391 316.753C611.171 316.753 607.836 315.43 605.593 312.785L602.373 315.43C605.363 319.11 610.078 320.663 614.506 320.663C622.671 320.663 628.248 315.488 628.248 308.645C628.248 302.493 623.878 299.273 619.221 298.928C623.418 298.123 626.983 294.5 626.983 289.728C626.983 284.323 622.268 279.78 614.851 279.78H614.85ZM649.328 279.78C643.981 279.78 640.416 281.678 637.253 285.473L640.588 288.003C643.118 285.07 645.246 283.805 649.156 283.805C653.583 283.805 656.228 286.565 656.228 290.993C656.228 297.49 653.008 301.803 638.058 316.12V320.03H661.576L662.151 315.948H643.521C656.573 304.045 661.231 298.123 661.231 290.878C661.231 284.553 656.803 279.78 649.328 279.78V279.78ZM698.066 316.12H689.786V280.47H685.588L673.858 287.715L675.928 291.108L685.013 285.645V316.12H675.238V320.03H698.066V316.12V316.12Z" fill="#0C2074"/>
<path d="M55.607 415.42H62.052V393.175L55.04 394.581V390.987L62.013 389.581H65.958V415.421H72.404V418.741H55.607V415.42ZM81.075 415.42H87.521V393.175L80.509 394.581V390.987L87.482 389.581H91.427V415.421H97.872V418.741H81.075V415.42ZM121.993 415.42H135.763V418.741H117.247V415.421C119.273 413.333 121.311 411.256 123.361 409.191C125.951 406.573 127.579 404.887 128.243 404.131C129.506 402.713 130.385 401.515 130.88 400.538C131.388 399.548 131.642 398.578 131.642 397.628C131.642 396.078 131.095 394.815 130.002 393.838C128.92 392.862 127.508 392.374 125.762 392.374C124.526 392.374 123.217 392.589 121.837 393.019C120.47 393.449 119.005 394.099 117.443 394.972V390.987C119.031 390.349 120.516 389.867 121.896 389.542C123.276 389.216 124.539 389.054 125.685 389.054C128.705 389.054 131.115 389.809 132.911 391.319C134.708 392.829 135.607 394.848 135.607 397.374C135.612 398.548 135.379 399.71 134.923 400.792C134.48 401.86 133.667 403.122 132.482 404.581C132.156 404.959 131.121 406.052 129.376 407.862C126.92 410.387 124.459 412.907 121.993 415.421V415.42ZM156.017 403.019C157.905 403.422 159.377 404.262 160.431 405.539C161.499 406.814 162.032 408.389 162.032 410.265C162.032 413.142 161.042 415.369 159.064 416.945C157.084 418.52 154.272 419.308 150.626 419.308C149.402 419.308 148.139 419.184 146.837 418.936C145.476 418.683 144.138 418.324 142.833 417.862V414.054C143.956 414.704 145.167 415.19 146.427 415.499C147.763 415.828 149.134 415.992 150.509 415.987C152.983 415.987 154.864 415.499 156.154 414.522C157.456 413.546 158.107 412.127 158.107 410.265C158.107 408.545 157.501 407.205 156.29 406.241C155.092 405.265 153.42 404.776 151.27 404.776H147.872V401.534H151.427C153.367 401.534 154.851 401.15 155.88 400.382C156.909 399.601 157.423 398.481 157.423 397.022C157.423 395.525 156.889 394.379 155.822 393.585C154.767 392.778 153.25 392.374 151.271 392.374C150.19 392.374 149.031 392.491 147.794 392.726C146.557 392.96 145.197 393.325 143.712 393.819V390.304C145.093 389.913 146.496 389.6 147.912 389.366C149.139 389.165 150.379 389.061 151.622 389.054C154.617 389.054 156.987 389.737 158.732 391.104C160.476 392.459 161.349 394.294 161.349 396.612C161.349 398.227 160.887 399.594 159.962 400.714C159.038 401.821 157.722 402.589 156.017 403.019V403.019ZM182.306 389.581H197.794V392.901H185.92V400.05C186.48 399.858 187.055 399.714 187.639 399.62C188.206 399.516 188.782 399.464 189.358 399.464C192.613 399.464 195.191 400.356 197.092 402.14C198.993 403.923 199.944 406.339 199.944 409.386C199.944 412.524 198.967 414.966 197.014 416.71C195.061 418.442 192.307 419.308 188.752 419.308C187.528 419.308 186.278 419.203 185.002 418.995C183.674 418.771 182.362 418.458 181.076 418.058V414.093C182.222 414.721 183.442 415.2 184.709 415.519C185.959 415.831 187.281 415.987 188.674 415.987C190.927 415.987 192.711 415.395 194.026 414.21C195.341 413.025 195.998 411.417 195.998 409.386C195.998 407.354 195.341 405.746 194.026 404.561C192.711 403.377 190.926 402.784 188.674 402.784C187.619 402.784 186.564 402.901 185.51 403.136C184.408 403.391 183.335 403.757 182.307 404.229V389.581H182.306ZM216.173 404.894C214.298 404.894 212.82 405.394 211.739 406.397C210.672 407.4 210.138 408.78 210.138 410.538C210.138 412.296 210.672 413.676 211.739 414.678C212.82 415.681 214.299 416.183 216.173 416.183C218.048 416.183 219.526 415.681 220.607 414.679C221.687 413.663 222.227 412.283 222.227 410.539C222.227 408.78 221.687 407.4 220.607 406.397C219.539 405.395 218.061 404.894 216.173 404.894V404.894ZM212.228 403.214C210.535 402.797 209.213 402.009 208.263 400.851C207.325 399.691 206.857 398.279 206.857 396.612C206.857 394.282 207.684 392.439 209.337 391.085C211.004 389.731 213.282 389.054 216.173 389.054C219.077 389.054 221.355 389.731 223.009 391.084C224.663 392.439 225.489 394.282 225.489 396.612C225.489 398.279 225.014 399.692 224.064 400.851C223.126 402.009 221.818 402.797 220.138 403.214C222.039 403.657 223.517 404.522 224.572 405.811C225.639 407.101 226.173 408.676 226.173 410.538C226.173 413.364 225.307 415.532 223.575 417.042C221.857 418.552 219.389 419.308 216.173 419.308C212.957 419.308 210.483 418.552 208.751 417.042C207.032 415.532 206.173 413.364 206.173 410.538C206.173 408.676 206.707 407.101 207.775 405.811C208.842 404.522 210.327 403.657 212.228 403.214ZM210.782 396.984C210.782 398.494 211.252 399.672 212.189 400.519C213.139 401.365 214.467 401.789 216.173 401.789C217.866 401.789 219.187 401.365 220.138 400.519C221.101 399.672 221.583 398.494 221.583 396.983C221.583 395.473 221.101 394.295 220.138 393.448C219.188 392.602 217.866 392.178 216.173 392.178C214.467 392.178 213.139 392.602 212.189 393.448C211.251 394.295 210.782 395.473 210.782 396.983V396.984Z" fill="#0C2074"/>
<path d="M308.836 414.453H315.281V392.207L308.27 393.613V390.02L315.242 388.613H319.188V414.453H325.633V417.773H308.836V414.453ZM345.574 402.05C347.462 402.454 348.934 403.294 349.989 404.57C351.056 405.846 351.59 407.422 351.59 409.297C351.59 412.174 350.6 414.401 348.621 415.977C346.642 417.552 343.83 418.34 340.184 418.34C338.96 418.34 337.697 418.216 336.394 417.969C335.034 417.716 333.695 417.356 332.391 416.895V413.085C333.514 413.735 334.724 414.222 335.985 414.531C337.32 414.861 338.691 415.025 340.067 415.02C342.541 415.02 344.422 414.531 345.711 413.555C347.013 412.578 347.664 411.159 347.664 409.297C347.664 407.578 347.059 406.237 345.848 405.273C344.65 404.297 342.977 403.809 340.828 403.809H337.43V400.566H340.985C342.925 400.566 344.409 400.182 345.438 399.414C346.466 398.633 346.981 397.513 346.981 396.054C346.981 394.557 346.447 393.411 345.379 392.617C344.324 391.81 342.808 391.407 340.829 391.407C339.748 391.407 338.589 391.523 337.352 391.757C336.115 391.992 334.754 392.357 333.27 392.852V389.336C334.651 388.945 336.053 388.632 337.469 388.398C338.696 388.197 339.936 388.093 341.179 388.086C344.175 388.086 346.545 388.77 348.289 390.136C350.034 391.491 350.906 393.326 350.906 395.645C350.906 397.259 350.444 398.626 349.52 399.746C348.595 400.853 347.28 401.621 345.574 402.051V402.05ZM362.489 414.453H376.259V417.773H357.742V414.453C359.768 412.365 361.806 410.288 363.856 408.223C366.446 405.605 368.074 403.919 368.739 403.164C370.002 401.744 370.88 400.547 371.375 399.57C371.883 398.58 372.137 397.61 372.137 396.66C372.137 395.11 371.59 393.848 370.497 392.871C369.416 391.895 368.003 391.406 366.258 391.406C365.021 391.406 363.712 391.621 362.332 392.051C360.965 392.481 359.5 393.131 357.938 394.004V390.02C359.526 389.382 361.011 388.9 362.391 388.574C363.771 388.249 365.034 388.086 366.18 388.086C369.2 388.086 371.61 388.841 373.406 390.352C375.203 391.862 376.102 393.88 376.102 396.406C376.107 397.58 375.874 398.742 375.418 399.824C374.976 400.892 374.162 402.154 372.977 403.614C372.651 403.991 371.617 405.084 369.871 406.894C367.416 409.419 364.955 411.939 362.489 414.454V414.453ZM385.242 414.453H391.688V392.207L384.676 393.613V390.02L391.649 388.613H395.594V414.453H402.039V417.773H385.242V414.453ZM434.715 402.05C436.603 402.454 438.075 403.294 439.129 404.57C440.197 405.846 440.731 407.422 440.731 409.297C440.731 412.174 439.741 414.401 437.762 415.977C435.782 417.552 432.97 418.34 429.324 418.34C428.101 418.34 426.837 418.216 425.535 417.969C424.174 417.716 422.836 417.357 421.531 416.895V413.085C422.654 413.735 423.864 414.222 425.125 414.531C426.46 414.861 427.831 415.025 429.207 415.02C431.681 415.02 433.563 414.531 434.852 413.555C436.154 412.578 436.805 411.159 436.805 409.297C436.805 407.578 436.199 406.237 434.989 405.273C433.791 404.297 432.117 403.809 429.969 403.809H426.571V400.566H430.125C432.065 400.566 433.55 400.182 434.578 399.414C435.607 398.633 436.121 397.513 436.121 396.054C436.121 394.557 435.587 393.411 434.52 392.617C433.465 391.81 431.948 391.407 429.969 391.407C428.889 391.407 427.729 391.523 426.492 391.757C425.255 391.992 423.895 392.357 422.41 392.852V389.336C423.791 388.945 425.194 388.632 426.61 388.398C427.837 388.197 429.077 388.093 430.32 388.086C433.315 388.086 435.685 388.77 437.43 390.136C439.175 391.491 440.047 393.326 440.047 395.645C440.047 397.259 439.585 398.626 438.66 399.746C437.736 400.853 436.42 401.621 434.715 402.051V402.05ZM459.07 392.05L449.11 407.617H459.07V392.051V392.05ZM458.035 388.613H462.996V407.617H467.156V410.898H462.996V417.773H459.071V410.898H445.906V407.09L458.036 388.613H458.035ZM473.739 388.613H489.227V391.933H477.352V399.082C477.912 398.89 478.487 398.746 479.071 398.652C479.638 398.548 480.213 398.496 480.789 398.496C484.045 398.496 486.623 399.388 488.524 401.172C490.424 402.956 491.375 405.372 491.375 408.418C491.375 411.556 490.399 413.998 488.445 415.742C486.492 417.474 483.739 418.34 480.184 418.34C478.96 418.34 477.71 418.236 476.434 418.027C475.106 417.803 473.794 417.49 472.508 417.09V413.125C473.654 413.753 474.874 414.232 476.141 414.551C477.391 414.863 478.712 415.02 480.106 415.02C482.358 415.02 484.142 414.427 485.457 413.242C486.772 412.057 487.43 410.449 487.43 408.418C487.43 406.387 486.772 404.778 485.457 403.594C484.142 402.409 482.358 401.816 480.106 401.816C479.051 401.816 477.996 401.934 476.942 402.168C475.84 402.423 474.767 402.79 473.739 403.262V388.613V388.613ZM499.207 388.613H514.696V391.933H502.82V399.082C503.379 398.89 503.954 398.746 504.538 398.652C505.105 398.548 505.681 398.496 506.258 398.496C509.512 398.496 512.09 399.388 513.991 401.172C515.892 402.956 516.843 405.372 516.843 408.418C516.843 411.556 515.866 413.998 513.913 415.742C511.96 417.474 509.206 418.34 505.652 418.34C504.428 418.34 503.178 418.236 501.902 418.027C500.574 417.803 499.262 417.49 497.976 417.09V413.125C499.122 413.753 500.342 414.232 501.609 414.551C502.859 414.863 504.18 415.02 505.573 415.02C507.826 415.02 509.61 414.427 510.925 413.242C512.24 412.057 512.898 410.449 512.898 408.418C512.898 406.387 512.24 404.778 510.925 403.594C509.61 402.409 507.826 401.816 505.573 401.816C504.519 401.816 503.464 401.934 502.409 402.168C501.307 402.423 500.234 402.79 499.206 403.262V388.613H499.207Z" fill="#0C2074"/>
</svg>
