<svg width="780" height="500" viewBox="0 0 780 500" fill="none" xmlns="http://www.w3.org/2000/svg">
<g clip-path="url(#clip0)">
<path d="M725 0H55C24.673 0 0 24.673 0 55V446C0 476.327 24.673 501 55 501H725C755.325 501 780 476.327 780 446V55C780 24.673 755.325 0 725 0ZM732.973 101.89C732.973 102.269 732.513 104.728 731.952 107.354C731.243 110.677 730.547 114.002 729.864 117.331C729.276 120.192 728.423 124.328 727.963 126.521C727.313 129.641 726.668 132.762 726.03 135.884C725.426 138.841 724.498 143.367 723.967 145.941C723.436 148.516 722.575 152.73 722.055 155.304C721.535 157.88 720.669 162.093 720.132 164.668C719.506 167.672 718.888 170.678 718.278 173.685C717.797 176.069 716.925 180.36 716.342 183.221C715.758 186.082 714.821 190.608 714.259 193.278C713.697 195.948 712.841 200.084 712.357 202.468C711.872 204.852 711.001 209.143 710.419 212.004C709.837 214.865 708.902 219.391 708.34 222.062C707.778 224.732 706.942 228.789 706.479 231.078C705.196 237.437 703.904 243.795 702.605 250.152C702.135 252.44 701.298 256.499 700.745 259.167C700.036 262.576 699.334 265.986 698.637 269.398C698.032 272.355 697.166 276.567 696.714 278.762C696.26 280.954 695.413 285.089 694.829 287.95C694.145 291.304 693.458 294.655 692.766 298.007C692.215 300.678 691.351 304.892 690.845 307.372C690.341 309.851 689.462 314.143 688.895 316.907C688.327 319.673 687.398 324.198 686.833 326.964C686.267 329.73 685.419 333.866 684.948 336.155C684.306 339.274 683.67 342.395 683.036 345.517C682.353 348.86 681.653 352.2 680.934 355.536L679.89 360.353L678.646 363.685C677.962 365.518 676.933 367.954 676.359 369.099C675.788 370.243 674.621 372.262 673.767 373.586C672.913 374.908 671.723 376.604 671.123 377.353C670.522 378.102 668.716 380.036 667.105 381.652L664.182 384.587L661.368 386.587C659.82 387.688 658.151 388.807 657.663 389.073C657.173 389.341 655.308 390.294 653.517 391.188C651.728 392.084 649.2 393.225 647.9 393.722C646.6 394.221 644.025 395.068 642.178 395.605C640.331 396.144 638.351 396.674 637.78 396.784C637.207 396.893 635.221 397.304 633.366 397.698C631.511 398.091 627.765 398.677 625.044 399.001L620.094 399.591L333.564 399.693L47.034 399.797V399.107C47.034 398.728 47.491 396.269 48.049 393.642C48.608 391.016 49.476 386.838 49.98 384.359C50.482 381.88 51.342 377.667 51.889 374.995C53.235 368.468 54.565 361.937 55.878 355.403C56.395 352.827 57.256 348.613 57.794 346.04C58.48 342.747 59.158 339.452 59.831 336.156C60.413 333.296 61.298 328.925 61.798 326.445C62.298 323.965 63.092 320.142 63.563 317.95C64.033 315.757 64.634 312.792 64.896 311.36C65.159 309.93 66.01 305.715 66.787 301.997C67.441 298.88 68.077 295.759 68.692 292.634C68.963 291.204 69.824 286.989 70.606 283.271C71.387 279.553 72.245 275.339 72.513 273.908C72.781 272.478 73.644 268.264 74.43 264.545C75.218 260.825 76.068 256.691 76.318 255.356C76.57 254.021 77.258 250.587 77.848 247.727C78.437 244.866 79.553 239.482 80.327 235.763C81.102 232.043 82.426 225.567 83.269 221.37C84.114 217.174 85.123 212.181 85.512 210.274C86.655 204.666 87.808 199.059 88.973 193.455C89.547 190.688 90.48 186.163 91.047 183.397C91.615 180.632 92.489 176.34 92.99 173.861C93.491 171.381 94.346 167.246 94.89 164.671C95.434 162.096 96.37 157.57 96.97 154.614C97.57 151.657 98.575 147.132 99.203 144.557C99.831 141.982 100.719 138.861 101.177 137.622C101.634 136.381 102.897 133.695 103.983 131.649L105.958 127.932L107.753 125.58C108.739 124.288 110.502 122.245 111.669 121.041C112.836 119.837 114.804 118.025 116.045 117.015C117.284 116.004 119.079 114.64 120.032 113.984C120.986 113.328 122.859 112.179 124.194 111.431C125.529 110.683 127.403 109.704 128.356 109.255C129.31 108.806 131.261 107.985 132.691 107.432C134.121 106.88 136.852 105.953 138.759 105.374C140.666 104.794 144.247 103.92 146.716 103.433C149.185 102.945 153.085 102.293 155.386 101.984L159.567 101.422L446.277 101.314L732.987 101.203V101.89H732.973Z" fill="white"/>
<path d="M266.61 285.31L272.496 283.308L273.767 282.359C274.615 281.719 275.443 281.055 276.251 280.368C276.919 279.796 278.042 278.52 278.746 277.538C279.45 276.556 280.677 274.517 281.473 273.009L282.921 270.267L284.102 266.878C284.752 265.016 285.684 261.738 286.174 259.597L287.064 255.701L287.242 249.112L287.42 242.522L286.839 240.293C286.52 239.067 285.893 237.344 285.446 236.463L284.636 234.862L283.131 233.35L281.627 231.838L279.834 231.012L278.04 230.186L275.499 229.645L272.957 229.103L266.715 229.469L264.287 230.221L261.86 230.972L260 232.028C258.976 232.608 257.244 233.828 256.15 234.737L254.162 236.391L253.255 241.191C252.756 243.83 251.866 248.722 251.279 252.06C250.647 255.647 249.993 259.23 249.319 262.81L248.426 267.493L248.248 270.48L248.071 273.469L248.513 275.334C248.756 276.361 249.303 277.981 249.73 278.936L250.505 280.67L251.848 281.951L253.19 283.233L255.113 284.111L257.035 284.988L258.928 285.322L260.82 285.658L266.61 285.31V285.31Z" fill="white"/>
<path d="M510.16 285.05L512.972 284.161L515.785 283.27L517.062 282.404C517.765 281.927 518.466 281.536 518.62 281.536C518.774 281.536 519.837 280.609 520.979 279.477L523.058 277.416L524.325 275.289C525.021 274.119 525.592 273.068 525.592 272.951C525.592 272.836 526.053 271.559 526.616 270.115C527.178 268.672 528.037 266.01 528.522 264.196C529.009 262.384 529.615 259.677 529.869 258.181L530.33 255.459L529.782 255.232L529.233 255.005H511.893L509.119 255.663L506.345 256.323L504.114 257.397L501.882 258.472L499.78 260.56L497.676 262.647L496.578 264.914C495.974 266.16 495.215 268.092 494.891 269.203L494.303 271.225L494.45 274.559L494.595 277.892L495.338 279.32C495.747 280.105 496.467 281.205 496.938 281.766L497.796 282.785L499.365 283.593C500.228 284.037 501.762 284.612 502.772 284.867L504.61 285.337L507.384 285.191L510.16 285.05V285.05Z" fill="white"/>
<path d="M359.72 246.16L360.086 242.778L360.453 239.397L360.132 237.365L359.812 235.333L359.329 234.417C359.061 233.914 358.365 232.987 357.782 232.358L356.72 231.213L354.784 230.327L352.848 229.441L350.186 229.099L347.522 228.756L344.053 228.979C342.146 229.1 339.962 229.36 339.198 229.556C338.436 229.752 336.798 230.398 335.558 230.991L333.303 232.068L331.009 234.351L328.716 236.632L327.671 238.709C327.098 239.851 326.218 241.925 325.718 243.319C325.217 244.714 324.807 245.924 324.807 246.007C324.807 246.092 332.662 246.16 342.262 246.16H359.72V246.16Z" fill="white"/>
<path d="M443.21 110.45L173.67 110.551L169.739 111.079C167.576 111.37 163.909 111.983 161.588 112.442C159.267 112.9 155.9 113.721 154.107 114.266C152.315 114.811 149.747 115.682 148.403 116.201C147.058 116.721 145.224 117.493 144.327 117.915C143.431 118.337 141.67 119.258 140.415 119.961C139.159 120.664 137.399 121.744 136.502 122.361C135.606 122.978 133.918 124.26 132.753 125.21C131.587 126.16 129.737 127.863 128.639 128.995C127.542 130.127 125.885 132.048 124.958 133.263L123.27 135.474L121.414 138.968C120.393 140.892 119.205 143.417 118.776 144.584C118.345 145.748 117.51 148.683 116.92 151.103C116.17 154.243 115.47 157.395 114.821 160.558C114.256 163.337 113.377 167.592 112.865 170.013C112.26 172.891 111.664 175.771 111.079 178.653C110.608 180.983 109.786 185.018 109.252 187.618C108.719 190.218 107.842 194.472 107.302 197.074C106.763 199.673 105.96 203.561 105.517 205.712C105.074 207.864 104.413 211.093 104.049 212.886C103.683 214.678 102.734 219.372 101.94 223.317C101.031 227.83 100.109 232.34 99.174 236.848C98.446 240.345 97.397 245.406 96.843 248.096C96.349 250.484 95.87 252.874 95.405 255.268C95.17 256.523 94.371 260.412 93.63 263.908C92.891 267.404 92.08 271.367 91.828 272.711C91.576 274.057 90.769 278.018 90.035 281.514C89.3 285.01 88.49 288.972 88.236 290.317C87.657 293.255 87.06 296.19 86.445 299.12C85.714 302.616 84.914 306.579 84.667 307.923C84.274 309.993 83.856 312.058 83.414 314.118C82.847 316.776 82.293 319.439 81.754 322.104C81.284 324.435 80.452 328.543 79.905 331.233C79.357 333.922 78.495 338.104 77.99 340.525C77.484 342.944 76.675 346.907 76.189 349.329C74.954 355.472 73.704 361.61 72.439 367.747C71.925 370.259 71.116 374.22 70.644 376.551C70.17 378.882 69.354 382.81 68.829 385.278C68.304 387.748 67.874 390.06 67.874 390.416V391.065L337.254 390.968L606.634 390.872L611.288 390.317C613.847 390.013 617.368 389.462 619.111 389.09C620.855 388.721 622.722 388.336 623.26 388.232C623.798 388.129 625.66 387.631 627.396 387.126C629.132 386.62 631.553 385.824 632.775 385.355C633.998 384.888 636.375 383.816 638.056 382.973C639.363 382.324 640.661 381.661 641.953 380.985C642.413 380.734 643.98 379.682 645.435 378.648L648.081 376.767L650.829 374.007C652.343 372.488 654.042 370.671 654.605 369.966C655.169 369.262 656.289 367.669 657.091 366.425C657.893 365.18 658.99 363.28 659.527 362.206C660.067 361.13 661.035 358.839 661.677 357.116L662.847 353.983L663.828 349.456C664.368 346.964 665.258 342.726 665.804 340.036C666.35 337.346 667.158 333.384 667.601 331.233C668.044 329.081 668.841 325.193 669.373 322.592C669.904 319.992 670.777 315.738 671.312 313.139C671.845 310.539 672.671 306.504 673.145 304.174C673.745 301.238 674.347 298.304 674.952 295.369C675.471 292.858 676.343 288.605 676.891 285.914C677.44 283.226 678.236 279.336 678.663 277.276C679.088 275.213 679.9 271.252 680.471 268.472C681.037 265.693 681.93 261.365 682.452 258.854C682.973 256.345 683.76 252.53 684.202 250.379C684.643 248.226 685.464 244.191 686.03 241.412C686.636 238.424 687.241 235.435 687.843 232.447C688.416 229.62 688.999 226.795 689.592 223.971C690.253 220.821 690.904 217.669 691.547 214.515C692.093 211.825 692.912 207.791 693.369 205.55C693.824 203.309 694.628 199.42 695.157 196.91C695.684 194.4 696.566 190.145 697.115 187.455C697.663 184.766 698.482 180.731 698.935 178.49C699.388 176.249 700.17 172.434 700.677 170.013C701.181 167.592 701.996 163.632 702.485 161.21C702.973 158.79 703.784 154.828 704.283 152.407C704.782 149.987 705.655 145.732 706.221 142.953C706.789 140.173 707.607 136.213 708.039 134.15C708.471 132.088 709.274 128.2 709.826 125.51C710.377 122.821 711.26 118.599 711.789 116.131C712.315 113.662 712.749 111.35 712.749 110.994V110.345L443.219 110.45H443.21ZM217.37 201.453L217.523 198.482L218.332 196.575L219.142 194.668L220.172 193.563L221.202 192.459L222.977 191.665L224.752 190.87H229.966L231.174 191.618L232.381 192.365L233.075 193.516L233.768 194.668L233.74 197.614L233.713 200.562L232.932 202.564L232.153 204.567L230.671 206.069L229.19 207.572L227.515 208.142L225.841 208.712L223.737 208.705L221.631 208.696L220.178 208.037L218.724 207.377L217.97 205.901L217.218 204.424L217.37 201.453V201.453ZM198.559 224.316C197.875 228.017 197.185 231.716 196.488 235.414C195.837 238.877 195.21 242.346 194.608 245.818C193.956 249.63 193.314 253.445 192.682 257.261C192.098 260.789 191.162 266.33 190.604 269.572C190.026 272.924 189.454 276.276 188.885 279.63C188.503 281.88 188.148 284.134 187.819 286.393C187.619 287.823 187.289 289.968 187.082 291.162L186.708 293.328H169.787L169.783 292.895C169.781 292.656 170.331 289.417 171.004 285.699C171.678 281.979 172.604 276.986 173.062 274.602C173.711 271.194 174.349 267.784 174.976 264.373C175.573 261.129 176.523 255.979 177.088 252.927C177.653 249.876 178.292 246.479 178.507 245.377L178.901 243.375L178.649 243.123L178.397 242.872H133.084L132.889 243.066C132.783 243.173 132.318 245.357 131.857 247.922C131.397 250.485 130.619 254.923 130.13 257.784C129.641 260.644 128.759 265.872 128.171 269.401L126.264 280.844C125.803 283.61 125.153 287.551 124.821 289.602L124.216 293.329H107.364V292.767C107.364 292.456 107.766 290.233 108.257 287.825C108.749 285.418 109.285 282.666 109.451 281.713C109.615 280.76 110.134 278.107 110.604 275.818C111.271 272.527 111.919 269.232 112.549 265.934C113.149 262.787 114.008 258.261 114.459 255.877C115.1 252.469 115.729 249.058 116.346 245.646C117.088 241.491 117.793 237.329 118.462 233.162L120.365 221.198C120.836 218.242 121.7 212.858 122.285 209.234C122.762 206.288 123.231 203.34 123.692 200.391C123.88 199.151 124.279 196.772 124.579 195.103L125.122 192.068H142.117L141.907 192.618C141.79 192.92 141.381 194.949 140.998 197.126C140.614 199.303 140.062 202.216 139.771 203.598C139.435 205.237 139.146 206.885 138.903 208.541C138.716 209.876 138.168 213.075 137.683 215.649C137.182 218.311 136.665 220.97 136.133 223.626C135.716 225.698 135.323 227.774 134.954 229.855C134.674 231.469 134.477 232.816 134.516 232.85C134.556 232.882 139.328 233.023 145.121 233.16L155.653 233.41L168.229 233.156L180.804 232.901L181.382 229.044C181.899 225.674 182.437 222.308 182.996 218.945C183.566 215.511 184.41 210.596 184.872 208.02C185.334 205.445 186.02 201.545 186.399 199.351C186.777 197.158 187.191 194.621 187.318 193.716L187.551 192.068H204.684L204.1 194.582C203.779 195.966 203.032 199.75 202.44 202.992C201.848 206.234 200.97 211.072 200.488 213.742C200.006 216.411 199.139 221.17 198.559 224.316V224.316ZM222.015 258.996C220.641 267.102 219.3 275.215 217.991 283.333C217.419 286.895 216.949 290.355 216.949 291.021C216.949 291.685 216.855 292.476 216.738 292.779L216.528 293.327H201.61L201.819 292.548C201.935 292.118 202.332 290.286 202.703 288.473C203.073 286.661 203.848 282.76 204.426 279.803C205.004 276.847 205.873 272.322 206.357 269.745C206.842 267.171 207.692 262.645 208.247 259.689C208.919 256.054 209.553 252.413 210.147 248.764C210.638 245.714 211.512 240.329 212.089 236.8C212.667 233.273 213.423 228.357 213.767 225.877L214.397 221.368L229.483 221.182L229.294 221.487C229.191 221.654 228.551 224.582 227.872 227.995C227.193 231.408 226.241 236.307 225.758 238.882C225.136 242.177 224.508 245.471 223.874 248.764C223.224 252.169 222.604 255.58 222.015 258.996ZM302.639 249.668C302.358 252.107 301.993 254.537 301.546 256.951L300.851 260.555L299.507 264.717C298.767 267.006 297.499 270.439 296.686 272.346C295.874 274.252 294.768 276.467 294.227 277.264C293.686 278.062 293.243 278.801 293.243 278.909C293.243 279.014 292.506 280.079 291.604 281.272C290.704 282.467 288.948 284.463 287.703 285.706L285.44 287.969L283.012 289.55C281.677 290.419 279.649 291.559 278.504 292.081L276.424 293.03L272.547 294.034L268.671 295.036L265.091 295.257L261.512 295.476L258.691 295.111L255.871 294.746L253.504 293.799L251.138 292.851L249.215 290.914L247.293 288.976L246.427 287.338C245.95 286.436 245.468 285.698 245.356 285.698C245.243 285.698 244.964 287.063 244.735 288.732C244.334 291.539 243.913 294.342 243.47 297.142C243.004 300.098 242.164 305.405 241.603 308.933C241.041 312.461 240.337 316.94 240.037 318.888C239.736 320.834 239.49 322.888 239.49 323.453C239.49 324.018 239.396 324.727 239.279 325.029L239.069 325.578H224.157L224.346 324.797C224.451 324.369 224.999 321.677 225.567 318.816C226.134 315.956 227.067 311.118 227.641 308.066C228.215 305.014 229.171 299.866 229.765 296.622C230.359 293.38 231.221 288.698 231.678 286.22C232.136 283.74 232.983 279.136 233.562 275.989C234.141 272.843 235.078 267.535 235.645 264.198C236.932 256.63 238.204 249.058 239.461 241.484C240.031 238.05 240.999 232.082 241.613 228.219L242.727 221.196H255.443L255.429 221.629C255.421 221.869 255.129 223.434 254.778 225.109L254.142 228.156L255.053 227.559C255.553 227.233 256.176 226.752 256.435 226.493C256.695 226.234 257.724 225.501 258.721 224.863C259.717 224.225 261.581 223.218 262.861 222.627L265.19 221.548L267.87 220.865L270.549 220.18L273.834 219.803L277.117 219.426L280.064 219.642L283.012 219.858L285.96 220.563L288.908 221.27L294.262 224.036L296.524 226.435L298.787 228.834L299.958 231.171L301.13 233.507L301.853 236.628L302.578 239.75L302.807 242.871L303.037 245.992L302.639 249.668V249.668ZM374.065 238.657L374.053 241.829L373.547 245.601C373.269 247.675 372.779 250.484 372.458 251.843L371.876 254.313L352.586 254.19L333.295 254.065L322.859 254.553L322.262 258.421L321.668 262.289L321.673 266.625L321.677 270.961L322.347 273.305L323.017 275.647L324.086 277.516L325.155 279.383L327.895 281.859L329.553 282.68C330.466 283.133 332.15 283.801 333.293 284.166L335.374 284.83L341.443 284.819L347.511 284.806L351.329 284.067L355.147 283.326L358.785 282.129C360.785 281.47 363.006 280.648 363.719 280.304L365.015 279.679L365.202 279.865L365.39 280.052L364.543 284.177C364.077 286.445 363.601 289.003 363.485 289.862L363.273 291.425L359.034 292.359C356.702 292.871 353.078 293.533 350.978 293.828C348.881 294.125 345.449 294.523 343.349 294.715L339.536 295.063L335.721 295.019C333.623 294.997 330.826 294.836 329.506 294.668C328.185 294.498 325.825 294.049 324.262 293.672L321.419 292.984L319.38 292.056C318.259 291.546 316.561 290.546 315.609 289.837C314.655 289.128 313.231 287.866 312.445 287.036C311.659 286.204 310.615 284.822 310.127 283.964C309.639 283.107 308.921 281.546 308.534 280.497C308.147 279.448 307.592 277.575 307.303 276.335L306.777 274.081L306.771 268.921L306.765 263.761L307.319 260.251C307.624 258.32 308.241 255.182 308.692 253.274C309.141 251.367 309.911 248.635 310.401 247.204C310.889 245.774 311.619 243.823 312.018 242.87C312.419 241.916 313.3 240.044 313.976 238.708C314.654 237.373 315.839 235.345 316.614 234.2C317.386 233.055 318.804 231.337 319.762 230.379C320.719 229.422 322.205 228.07 323.066 227.374C323.923 226.679 325.639 225.535 326.879 224.832C328.118 224.129 330.303 223.085 331.733 222.514L334.335 221.475L338.496 220.675L342.658 219.876L346.126 219.651L349.593 219.425L353.327 219.782L357.058 220.139L360.088 220.868L363.117 221.598L364.85 222.52C365.804 223.027 367.141 223.836 367.824 224.317C368.505 224.798 369.534 225.736 370.11 226.401C370.685 227.067 371.567 228.317 372.065 229.179L372.973 230.747L373.524 233.115L374.073 235.484L374.065 238.657V238.657ZM413.751 230.731L411.142 231.978L408.534 233.224L406.418 235.182L404.303 237.142L402.722 239.486C401.852 240.775 400.584 243.039 399.905 244.518C399.224 245.997 398.668 247.421 398.668 247.683C398.668 247.944 398.436 248.816 398.151 249.622C397.867 250.427 397.026 254.153 396.28 257.901C395.408 262.358 394.602 266.827 393.862 271.307C393.277 274.93 392.477 279.957 392.088 282.478C391.699 284.999 391.28 288.472 391.157 290.194L390.934 293.327H376.126V293.022C376.126 292.855 376.346 291.646 376.617 290.336C376.886 289.024 377.585 285.533 378.169 282.576C379.534 275.646 380.869 268.711 382.174 261.768C382.659 259.194 383.519 254.278 384.085 250.845C384.651 247.412 385.511 242.106 385.995 239.054C386.478 236.002 387.266 231.112 387.743 228.185C388.219 225.259 388.61 222.49 388.61 222.03V221.194H401.835L401.65 221.802C401.549 222.134 401.138 224.281 400.741 226.57C400.343 228.858 399.881 231.355 399.715 232.119L399.414 233.505L399.91 232.812C400.666 231.769 401.427 230.729 402.191 229.691C403.171 228.356 404.736 226.517 405.667 225.605C406.596 224.694 408.201 223.408 409.232 222.747C410.263 222.087 411.936 221.243 412.951 220.871C413.964 220.498 415.806 220.014 417.047 219.795L419.301 219.396L421.035 219.61C421.988 219.729 423.9 220.169 425.283 220.589C426.666 221.009 427.797 221.452 427.797 221.573C427.797 221.694 427.406 223.708 426.93 226.049C426.453 228.391 426.063 230.675 426.063 231.125C426.063 231.576 425.97 231.944 425.856 231.944C425.743 231.944 424.767 231.68 423.69 231.358L421.728 230.773L417.742 230.752L413.751 230.731V230.731ZM478.009 231.956L476.176 231.272L471.667 230.371L467.159 229.468L463.344 229.277L459.531 229.085L456.929 229.491C455.499 229.713 453.32 230.206 452.086 230.586L449.844 231.277L448.097 232.36L446.352 233.442L443.054 236.86L441.712 239.171C440.974 240.443 439.858 242.654 439.233 244.084C438.606 245.515 437.971 247.153 437.819 247.726C437.668 248.298 437.218 249.858 436.822 251.193L436.101 253.622L435.419 258.13L434.738 262.639L434.735 266.36L434.73 270.081L435.291 272.948L435.853 275.817L437.03 277.96L438.208 280.105L439.981 281.658L441.755 283.209L446.349 284.803L450.392 284.942L454.434 285.079L459.19 284.158L463.946 283.237L467.285 281.997C469.122 281.315 470.823 280.6 471.067 280.405C471.309 280.214 471.564 280.116 471.634 280.191C471.703 280.266 471.605 281.263 471.417 282.408C471.11 284.19 470.783 285.97 470.436 287.744C470.085 289.535 469.673 291.109 469.518 291.242C469.364 291.374 468.04 291.821 466.579 292.235C464.803 292.721 463.01 293.147 461.204 293.51C459.709 293.801 456.537 294.269 454.154 294.551L449.822 295.065L446.005 295.023H446.011C443.911 295.001 441.281 294.847 440.163 294.684C439.045 294.521 436.938 294.056 435.481 293.652L432.831 292.915L430.811 291.85L428.794 290.782L426.885 288.905L424.978 287.027L423.78 285.152L422.579 283.277L421.541 280.683L420.502 278.089L419.848 273.044L419.844 268.71L419.841 264.376L420.165 261.081L420.49 257.786L421.385 254.144C421.876 252.141 422.849 248.864 423.545 246.861L424.812 243.221L426.464 239.857C427.373 238.006 428.783 235.516 429.598 234.321L431.082 232.149L433.737 229.535C435.199 228.097 436.835 226.609 437.375 226.227C438.274 225.613 439.189 225.023 440.12 224.457C441.091 223.865 442.89 222.978 444.118 222.487L446.351 221.594L449.819 220.865L453.288 220.137L457.969 219.777L462.652 219.418L469.291 219.799C472.942 220.01 477.216 220.328 478.789 220.507C480.361 220.686 481.716 220.901 481.799 220.985C481.884 221.068 481.72 222.438 481.435 224.03C481.152 225.62 480.721 228.209 480.479 229.782C480.238 231.356 479.996 232.644 479.943 232.644C479.886 232.641 479.017 232.332 478.009 231.956V231.956ZM547.219 234.712L547.187 239.055L546.255 244.083C545.744 246.849 544.877 251.608 544.33 254.66C543.782 257.713 542.936 262.551 542.451 265.411C541.808 269.276 541.211 273.149 540.657 277.028L539.749 283.444L539.555 288.386L539.361 293.326H526.632L526.638 291.16C526.642 289.968 526.867 287.434 527.135 285.529C527.406 283.625 527.581 282.022 527.524 281.967C527.468 281.91 526.8 282.688 526.041 283.695C525.282 284.702 523.894 286.284 522.959 287.212C522.023 288.139 520.398 289.471 519.35 290.171C518.301 290.872 516.585 291.852 515.537 292.347L513.629 293.247L510.681 294.003L507.733 294.757L503.052 294.892H503.055L498.373 295.026L496.331 294.705C495.207 294.526 493.22 294.078 491.914 293.709L489.539 293.039L487.465 291.778L485.392 290.518L484.224 289.154C483.583 288.404 482.634 287.013 482.118 286.065L481.18 284.339L480.673 281.694L480.168 279.048V272.693L480.698 269.665L481.227 266.637L482.381 263.944C483.015 262.463 484.062 260.47 484.706 259.517C485.35 258.563 486.814 256.846 487.963 255.702L490.048 253.62L492.696 251.974C494.153 251.067 495.489 250.327 495.665 250.327C495.842 250.327 496.636 250.013 497.43 249.629C498.224 249.246 500.711 248.428 502.957 247.812L507.04 246.692L519.518 246.648L531.997 246.603L532.595 243.696L533.193 240.79L533.21 238.141L533.226 235.493L532.098 233.814L530.971 232.134L528.958 231.14L526.946 230.147L520.914 229.089L516.231 229.283L511.55 229.475L506.349 230.361C503.488 230.849 499.679 231.641 497.887 232.124C496.095 232.606 494.578 232.951 494.517 232.889C494.456 232.827 494.849 231.069 495.394 228.981C495.937 226.892 496.569 224.287 496.795 223.191L497.208 221.196L502.88 221.175L507.042 220.671C509.331 220.392 513.803 220.004 516.982 219.808L522.761 219.45L527.248 219.791L531.734 220.132L538.252 221.582L540.439 222.691L542.625 223.798L543.958 225.077L545.289 226.355L546.271 228.363L547.252 230.37L547.219 234.712V234.712ZM589.225 230.759L587.233 231.724C586.137 232.255 584.312 233.386 583.178 234.24L581.116 235.791L579.23 238.295L577.344 240.8L575.915 243.822C575.13 245.484 574.485 247.042 574.48 247.284C574.477 247.526 574.229 248.427 573.928 249.285C573.627 250.144 572.914 253.03 572.341 255.701C571.77 258.371 571.094 261.883 570.838 263.503C570.583 265.126 569.976 268.87 569.488 271.827C569 274.782 568.209 279.788 567.727 282.947L566.856 288.693V293.327H551.714L552.354 290.12L554.028 281.712C554.595 278.851 555.522 274.091 556.086 271.134C556.65 268.178 557.505 263.652 557.986 261.077C558.654 257.441 559.292 253.8 559.901 250.153C560.472 246.719 561.405 241.023 561.973 237.495C562.54 233.966 563.327 228.955 563.717 226.358C564.109 223.762 564.428 221.538 564.428 221.417V221.195H577.259L577.244 221.976C577.236 222.405 576.784 225.019 576.241 227.785C575.698 230.55 575.299 232.863 575.355 232.923C575.411 232.984 576.056 232.126 576.79 231.016L578.124 228.998L580.607 226.398L583.09 223.797L584.999 222.645L586.909 221.493L589.453 220.599L591.997 219.703L595.118 219.696L598.239 219.687L599.972 220.234C600.926 220.534 602.117 220.94 602.618 221.136L603.53 221.493L602.718 225.419C602.272 227.579 601.902 229.843 601.894 230.452L601.878 231.558L601.591 231.736L601.303 231.914L599.597 231.366L597.89 230.819L593.555 230.788L589.225 230.759V230.759ZM674.015 190.246C674.016 190.388 673.639 192.301 673.177 194.493C672.521 197.668 671.886 200.847 671.271 204.031C670.684 207.082 669.8 211.764 669.307 214.434C668.814 217.104 667.96 221.708 667.412 224.665C666.863 227.621 665.944 232.614 665.371 235.762C664.797 238.908 663.938 243.747 663.463 246.512C662.937 249.576 662.401 252.64 661.859 255.701C661.297 258.931 660.77 262.169 660.28 265.411C659.82 268.464 658.976 274.938 658.407 279.803L657.371 288.647V293.328H643.765L643.995 290.988C644.121 289.701 644.359 287.867 644.527 286.914C644.697 285.959 644.912 284.398 645.007 283.445L645.182 281.711L644.981 282.232C644.871 282.519 643.932 283.884 642.895 285.267L641.009 287.78L639.22 289.356L637.43 290.932L635.348 291.998C634.205 292.584 632.488 293.283 631.535 293.554C630.581 293.824 628.396 294.273 626.68 294.551L623.558 295.058L620.264 295.016C618.452 294.995 616.002 294.849 614.821 294.695C613.637 294.542 611.686 294.146 610.485 293.817C609.284 293.488 607.365 292.753 606.219 292.186L604.138 291.152L602.615 289.903L601.091 288.655L599.755 286.847L598.42 285.041L597.688 283.201C597.249 282.084 596.849 280.95 596.492 279.804L596.029 278.244L595.634 273.908L595.242 269.574L595.764 264.187L596.287 258.799L597.348 254.649C597.933 252.368 598.824 249.408 599.329 248.072C599.834 246.737 601.096 243.88 602.132 241.722L604.018 237.8L605.622 235.504C606.506 234.241 608.171 232.196 609.324 230.96L611.421 228.711L613.848 226.914L616.275 225.118L619.572 223.511L622.866 221.904L626.334 221.028L629.802 220.151L633.616 219.795L637.43 219.44L641.939 219.791L646.448 220.142L649.742 220.969C651.553 221.424 653.3 221.909 653.622 222.046L654.207 222.295L654.393 221.139C654.495 220.503 655.042 217.173 655.613 213.74C656.182 210.307 657.119 204.533 657.693 200.91C658.265 197.285 658.835 193.345 658.955 192.153L659.174 189.985H674.018V190.246H674.015Z" fill="white"/>
<path d="M628.8 285.04L634.314 283.29L636.221 282.021C637.27 281.324 638.65 280.268 639.289 279.672C639.927 279.078 640.936 277.888 641.535 277.029C642.133 276.172 643.052 274.563 643.577 273.457C644.101 272.351 644.756 270.633 645.03 269.642C645.305 268.651 645.842 266.67 646.22 265.239C646.6 263.809 647.313 260.532 647.805 257.957C648.298 255.383 649.16 250.779 649.721 247.728C650.283 244.676 651.068 240.306 651.466 238.017C651.864 235.729 652.277 233.428 652.382 232.904L652.573 231.952L651.592 231.571C651.053 231.361 649.129 230.778 647.316 230.276L644.022 229.361H638.301L632.579 229.364L629.852 230.308L627.125 231.252L625.573 232.207C624.718 232.732 623.28 233.876 622.377 234.746C621.473 235.618 620.104 237.179 619.335 238.215C618.567 239.251 617.45 241.034 616.852 242.179C616.104 243.637 615.393 245.115 614.722 246.61C614.147 247.902 613.677 249.15 613.673 249.383C613.671 249.617 613.277 251.057 612.799 252.583L611.93 255.357L611.371 259.344L610.811 263.333L610.771 267.841L610.73 272.349L611.21 274.604L611.692 276.858L613.804 280.904L615.225 282.068L616.647 283.234L618.336 283.957C619.266 284.355 620.82 284.825 621.793 285L623.559 285.317L626.178 285.18L628.8 285.04V285.04Z" fill="white"/>
</g>
<defs>
<clipPath id="clip0">
<rect width="780" height="500" fill="white"/>
</clipPath>
</defs>
</svg>
