<svg width="780" height="500" viewBox="0 0 780 500" fill="none" xmlns="http://www.w3.org/2000/svg">
<g clip-path="url(#clip0)">
<path d="M392 217C363.8 217 368.3 254.3 368.5 273.8C368.5 278 368.8 282.1 368.9 286.3H388.7C408.6 286.3 417.6 273.6 417.6 260.3C417.6 247 416.6 217 392 217Z" fill="white"/>
<path d="M725 0H55C24.7 0 0 24.7 0 55V446C0 476.3 24.7 501 55 501H725C755.3 501 780 476.3 780 446V55C780 24.7 755.3 0 725 0ZM285.5 133.9C296.7 133.9 305.8 143 305.8 154.2C305.8 165.4 296.7 174.5 285.5 174.5C274.3 174.5 265.2 165.4 265.2 154.2C265.2 143 274.3 133.9 285.5 133.9ZM245.4 315.9H205.9V242.7H140.7V315.9H101V140.9H140.7V208.1H205.9V140.9H245.4V315.9V315.9ZM388.7 317.4H369.5C369.7 333.6 369.7 349.9 369.7 366.2H329.1C329.1 350.6 329.2 334.2 329.3 317.4C285.4 317.2 265.2 289.4 265.2 260.4V188.8H305.8V260.4C305.8 273.7 313.2 286.4 329.5 286.4C329.6 254.2 329.5 221 328.4 188.8H362.3C363 195 363.7 201.2 364.3 207.4C380.3 175.4 430.8 182.4 447.8 209.5C465.3 237.4 471.3 317.4 388.7 317.4ZM587.2 265H505.4C506.7 281.4 522.8 289.1 541.2 289.1C554.7 289.1 565.6 287.3 576.3 283.9L581.5 310.6C568.5 315.8 552.7 318.4 535.5 318.4C492.4 318.4 467.7 293.5 467.7 253.7C467.7 221.5 487.7 185.9 531.8 185.9C572.8 185.9 588.4 217.8 588.4 249.3C588.5 256.2 587.7 262.2 587.2 265ZM679 223.7C676.1 223.2 672.8 222.7 668.4 222.7C653.9 222.7 644 230.5 641.4 242.7C640.9 245.3 640.6 248.4 640.6 251.5V315.9H601.1V230.7C601.1 212 600.6 199.8 600.1 188.9H634.1L635.4 212.3H636.4C642.9 193.9 658.5 186.1 670.7 186.1C674.3 186.1 676.2 186.1 679 186.6V223.7V223.7Z" fill="white"/>
<path d="M529.5 212.3C512.9 212.3 506.1 227.4 505.1 238H551.8C551.8 228.4 547.7 212.3 529.5 212.3Z" fill="white"/>
</g>
<defs>
<clipPath id="clip0">
<rect width="780" height="500" fill="white"/>
</clipPath>
</defs>
</svg>
