<svg width="780" height="500" viewBox="0 0 780 500" fill="none" xmlns="http://www.w3.org/2000/svg">
<g clip-path="url(#clip0)">
<path d="M739.83 0H41.67C18.665 0 -0.00195312 19.108 -0.00195312 42.68V459.82C-0.00195312 483.397 18.655 502.501 41.67 502.501H739.83C762.836 502.501 781.502 483.393 781.502 459.82V42.68C781.502 19.104 762.845 0 739.83 0V0ZM311.75 358.49C310.972 384.356 288.947 407 263.63 407.646C238.002 407.723 212.368 407.657 186.737 407.679V298.469C205.769 302.041 224.902 305.887 244.374 304.724C263.049 303.729 285.573 300.803 296.268 282.914C304.184 269.7 300.636 253.935 301.293 239.321L301.05 201.948L257.748 202.197C257.54 223.938 258.176 245.726 257.408 267.436C255.744 281.874 240.654 289.29 227.695 287.956C212.707 287.814 199.366 282.086 186.708 278.267H186.707C186.707 278.267 186.424 182.779 186.739 138.807C190.964 113.106 216.658 93.87 241.824 96.218H311.961C311.88 183.64 311.89 271.068 311.75 358.478V358.49ZM453.29 359.568C451.652 386.857 425.94 409.768 399.292 407.175H328.072V287.645C346.641 302.663 371.726 304.918 394.611 304.617C409.658 304.213 424.599 301.936 439.108 297.836L438.794 276.168C418.328 286.254 392.963 293.38 371.615 281.902C354.655 271.964 352.663 246.941 361.729 230.839C372.926 214.136 395.545 213.639 413.155 217.171C421.795 217.959 433.402 225.874 439.108 225.696V205.857C409.572 198.211 377.925 195.736 348.334 204.394C340.978 206.969 333.774 210.614 328.072 216.11L328.071 216.108C328.232 191.527 327.742 166.92 328.335 142.353C330.09 118.942 349.304 99.238 371.894 96.379C394.609 95.613 417.4 96.258 440.145 96.045H453.38C453.321 183.886 453.497 271.735 453.29 359.575V359.568ZM547.196 405.463C520.729 405.689 494.24 405.495 467.762 405.559V299.989H546.629C561.308 300.566 579.179 290.948 578.824 274.013C579.092 258.308 563.286 249.355 549.74 248.248C560.581 246.956 571.612 239.166 572.661 227.294C575.165 211.778 560.436 200.705 546.628 200.357C520.353 199.927 494.048 200.293 467.762 200.171V148.138C465.981 121.099 488.304 95.99 514.564 94.367C540.676 94.02 566.805 94.315 592.923 94.217V353.367C594.227 379.618 572.367 403.158 547.196 405.471V405.463ZM521.778 257.133C521.779 257.133 536.05 256.287 536.05 270.765C536.05 285.243 521.862 284.397 521.778 284.397H492.831V257.133H521.778ZM492.831 242.229V216.853H519.896C519.896 216.853 532.577 216.853 532.577 229.522C532.577 242.191 519.896 242.229 519.896 242.229H492.831V242.229Z" fill="white"/>
</g>
<defs>
<clipPath id="clip0">
<rect width="780" height="500" fill="white"/>
</clipPath>
</defs>
</svg>
