<svg width="780" height="500" viewBox="0 0 780 500" fill="none" xmlns="http://www.w3.org/2000/svg">
<g clip-path="url(#clip0)">
<path d="M736.99 0H41.51C18.593 0 -0.00195312 18.994 -0.00195312 42.426V457.076C-0.00195312 480.513 18.583 499.502 41.51 499.502H736.99C759.907 499.502 778.502 480.508 778.502 457.076V42.426C778.501 18.99 759.915 0 736.989 0L736.99 0ZM518.52 465.5C469.837 465.5 424.922 448.661 389.1 420.328C353.272 448.661 308.381 465.5 259.68 465.5C142.91 465.5 47.92 368.493 47.92 249.27C47.92 130.07 142.907 33.08 259.68 33.08C308.383 33.08 353.273 49.96 389.1 78.264C424.922 49.96 469.836 33.08 518.52 33.08C635.33 33.08 730.32 130.071 730.32 249.27C730.319 368.5 635.329 465.5 518.52 465.5Z" fill="white"/>
<path d="M373.03 249.38C373.03 247.666 375.546 235.78 362.429 235.508C355.183 235.508 349.975 240.451 347.857 249.38H373.03Z" fill="white"/>
<path d="M290.96 262.63C288.56 262.357 287.494 262.28 285.833 262.28C272.829 262.28 266.271 266.203 266.271 274.016C266.271 278.963 269.475 281.988 274.489 281.988C283.801 281.988 290.56 274.017 290.96 262.63V262.63Z" fill="white"/>
<path d="M611.2 236.34C599.718 236.34 592.568 250.222 592.568 262.505C592.568 272.881 597.433 279.789 605.533 279.681C616.636 279.681 623.659 269.298 623.659 251.824C623.659 243.876 620.482 236.34 611.2 236.34V236.34Z" fill="white"/>
<path d="M518.52 52.4449C475.568 52.4449 435.916 66.8149 403.84 91.0579C435.159 120.789 457.611 160.071 466.834 204.258H447.424C438.372 164.719 417.607 129.754 389.102 103.398C360.618 129.757 339.861 164.722 330.8 204.258H311.401C320.613 160.066 343.075 120.784 374.37 91.0579C342.335 66.8149 302.647 52.4449 259.68 52.4449C153.22 52.4449 66.8901 140.552 66.8901 249.265C66.8901 357.985 153.22 446.155 259.68 446.155C302.643 446.155 342.331 431.774 374.37 407.532C347.022 381.517 326.413 348.288 315.485 310.743H335.327C345.88 343.557 364.65 372.534 389.103 395.2C413.613 372.534 432.346 343.557 442.899 310.743H462.737C451.846 348.288 431.204 381.516 403.841 407.532C435.919 431.774 475.57 446.155 518.521 446.155C625.011 446.155 711.331 357.983 711.331 249.265C711.329 140.545 625.011 52.4449 518.521 52.4449H518.52ZM206.62 297.235L220.173 224.314L188.97 297.235H168.174L164.39 224.758L150.794 297.235H130.101L147.728 202.386H183.348L185.231 261.079L210.309 202.386H247.391L229.416 297.235H206.62V297.235ZM314.49 255.922C313.707 260.994 308.262 290.284 307.689 297.235H288.627L289.094 289.071C283.289 295.459 275.572 298.483 265.05 298.483C252.635 298.483 244.104 289.803 244.104 277.346C244.104 258.391 258.918 247.456 284.357 247.456C286.958 247.456 290.312 247.62 293.714 248.018C294.413 245.456 294.601 244.379 294.601 242.997C294.601 237.806 290.618 235.902 279.885 235.902C269.342 235.947 262.227 237.545 255.627 239.358L258.874 221.966C270.305 219.022 277.791 217.88 286.24 217.88C305.936 217.88 316.363 225.736 316.363 240.569C316.518 244.511 315.168 252.478 314.49 255.922ZM390.922 264.998H345.543C343.903 276.076 351.836 280.952 365.346 280.952C373.435 280.952 380.729 279.483 388.823 276.139L385.269 295.417C377.436 297.473 369.848 298.483 361.849 298.483C336.345 298.483 323.023 286.608 323.023 263.877C323.023 237.385 339.941 217.881 362.943 217.881C381.723 217.881 393.726 228.834 393.726 245.947C393.727 251.602 392.922 257.132 390.922 264.998ZM457.536 237.385C451.613 236.64 445.382 236.206 440.831 236.206C433.302 236.206 429.454 238.348 429.454 242.568C429.454 246.15 430.572 247.047 440.283 250.997C451.949 255.671 456.645 261.946 456.645 272.577C456.645 290.284 445.358 298.483 420.872 298.483C412.617 298.311 403.31 297.775 396.69 296.195L400.015 278.364C407.442 280.476 413.763 281.345 420.681 281.389C429.899 281.429 434.022 279.228 434.022 274.324C434.022 270.805 432.543 269.675 423.169 265.74C410.883 260.735 405.475 253.943 405.475 244.144C405.395 229.807 414.393 217.881 440.386 217.881C445.669 217.881 454.829 218.572 460.834 219.389L457.536 237.385V237.385ZM506.769 238.55H495.075C495.075 238.55 488.662 271.409 488.662 273.915C488.662 277.929 491.031 279.659 496.447 279.659C499.049 279.659 501.038 279.44 502.623 278.886H502.624H502.623L499.576 296.021C493.34 297.776 488.448 298.484 483.212 298.484C471.518 298.484 465.153 292.398 465.153 281.558C464.763 278.625 467.644 264.837 468.28 260.995C468.911 257.133 479.061 201.115 479.061 201.115H501.731L498.267 219.649H509.896L506.769 238.55V238.55ZM534.719 297.235H511.797L512.773 291.961C516.745 267.946 521.868 243.605 524.743 219.594H546.015C546.315 223.232 545.121 227.204 544.49 231.361C551.512 222.219 559.294 215.733 571.345 220.264C571.345 220.264 563.906 239.73 563.015 242.222C545.721 237.547 542.969 250.784 534.719 297.235V297.235ZM603.636 298.483C578.098 298.483 567.796 282.635 567.796 263.272C567.796 236.207 585.239 217.88 612.242 217.88C635.698 217.88 648.152 232.97 648.152 252.335C648.153 284.454 629.458 298.483 603.636 298.483Z" fill="white"/>
</g>
<defs>
<clipPath id="clip0">
<rect width="780" height="500" fill="white"/>
</clipPath>
</defs>
</svg>
