<svg width="780" height="500" viewBox="0 0 780 500" fill="none" xmlns="http://www.w3.org/2000/svg">
<g clip-path="url(#clip0)">
<path d="M736.04 0H41.46C18.573 0 0.00195312 18.975 0.00195312 42.383V456.613C0.00195312 480.026 18.564 498.997 41.46 498.997H736.04C758.929 498.997 777.499 480.021 777.499 456.613V42.383C777.499 18.971 758.937 0 736.04 0V0ZM518.1 465.4C469.417 465.4 424.538 448.51 388.73 420.265C352.948 448.511 308.068 465.4 259.38 465.4C142.66 465.4 47.7 368.521 47.7 249.48C47.7 130.43 142.659 33.6 259.38 33.6C308.066 33.6 352.944 50.427 388.73 78.713C424.534 50.427 469.413 33.6 518.1 33.6C634.82 33.6 729.78 130.434 729.78 249.48C729.779 368.52 634.814 465.4 518.1 465.4Z" fill="white"/>
<path d="M218.07 263.3C215.982 263.081 215.072 262.997 213.639 262.997C202.374 262.997 196.699 266.939 196.699 274.706C196.699 279.516 199.484 282.577 203.788 282.577C211.89 282.577 217.71 274.706 218.07 263.3Z" fill="white"/>
<path d="M549 263.3C546.933 263.081 546.006 262.997 544.548 262.997C533.304 262.997 527.609 266.939 527.609 274.706C527.609 279.516 530.395 282.577 534.743 282.577C542.822 282.577 548.665 274.706 549 263.3Z" fill="white"/>
<path d="M379.67 250.16C379.797 248.564 381.757 236.355 370.493 236.355C364.207 236.355 359.694 241.294 357.882 250.16H379.67Z" fill="white"/>
<path d="M645.93 279.85C655.168 279.85 661.688 269.128 661.688 253.863C661.688 244.051 657.999 238.745 651.158 238.745C642.15 238.745 635.759 249.463 635.759 264.624C635.758 274.736 639.18 279.85 645.93 279.85V279.85Z" fill="white"/>
<path d="M517.44 52.958C474.557 52.958 434.967 67.321 402.98 91.558C431.989 119.157 453.442 154.996 463.692 195.388H444.1C434.061 159.681 414.438 128.155 388.236 103.893C362.063 128.155 342.425 159.68 332.425 195.388H312.802C323.076 154.999 344.529 119.16 373.538 91.558C341.536 67.321 301.96 52.958 259.058 52.958C152.758 52.958 66.5981 141.044 66.5981 249.728C66.5981 358.388 152.767 446.498 259.058 446.498C301.962 446.498 341.537 432.135 373.538 407.898C346.242 381.911 325.651 348.616 314.765 311.139H334.577C345.102 343.954 363.787 372.92 388.235 395.563C412.71 372.92 431.42 343.955 441.946 311.139H461.752C450.849 348.618 430.261 381.91 402.98 407.898C434.963 432.134 474.553 446.498 517.44 446.498C623.73 446.498 709.9 358.384 709.9 249.728C709.9 141.038 623.729 52.958 517.44 52.958V52.958ZM145.95 297.668L157.321 224.778L131.945 297.668H118.403L116.736 225.211L104.799 297.668H86.2121L101.714 202.829H130.275L131.077 261.527L150.338 202.829H181.158L165.8 297.668H145.95V297.668ZM238.426 256.741C236.697 267.887 233.004 291.823 232.497 297.668H216.043L216.426 289.668C211.403 295.985 204.716 299.008 195.628 299.008C184.847 299.008 177.508 290.404 177.508 277.959C177.508 259.153 190.309 248.222 212.332 248.222C214.589 248.222 217.478 248.437 220.432 248.825C221.045 246.259 221.193 245.181 221.193 243.8C221.193 238.712 217.752 236.793 208.471 236.793C198.77 236.663 190.753 239.144 187.462 240.265C187.675 238.972 190.226 222.927 190.226 222.927C200.101 219.952 206.636 218.83 213.976 218.83C231.022 218.83 240.05 226.636 240.029 241.43C240.05 245.396 239.417 250.291 238.426 256.741ZM292.194 238.237C287.173 237.504 281.837 237.07 277.957 237.07C271.524 237.07 268.212 239.185 268.212 243.368C268.212 246.969 269.183 247.832 277.491 251.756C287.449 256.439 291.479 262.606 291.479 273.235C291.479 290.831 281.816 299.006 260.871 299.006C248.741 298.656 244.734 297.713 240.199 296.721L242.94 278.908C249.291 281.017 254.818 281.925 260.724 281.925C268.591 281.925 272.136 279.769 272.136 274.985C272.136 271.465 270.891 270.346 262.854 266.465C252.347 261.397 247.75 254.692 247.75 244.922V244.921C247.665 230.667 255.343 218.828 277.554 218.828C282.091 218.828 289.874 219.518 295.022 220.338L292.194 238.237V238.237ZM333.688 239.098H323.504C321.224 253.742 317.954 271.985 317.911 274.442C317.911 278.432 319.999 280.155 324.723 280.155C326.981 280.155 328.73 279.899 330.059 279.424L327.448 296.506C321.998 298.228 317.764 299.008 313.162 299.008C303.018 299.008 297.489 293.034 297.489 282.054C297.365 278.649 298.967 269.701 300.233 261.484C301.351 254.302 308.816 208.913 308.816 208.913H328.542L326.244 220.553H336.39L333.688 239.098V239.098ZM395.663 265.732H356.384C355.055 276.878 362.061 281.538 373.538 281.538C380.601 281.538 386.954 280.07 394.039 276.708L390.77 295.9C383.978 298.016 377.435 299.007 370.52 299.007C348.409 298.959 336.896 287.167 336.896 264.589C336.896 238.235 351.555 218.827 371.446 218.827C387.71 218.827 398.113 229.674 398.113 246.753C398.113 252.404 397.376 257.903 395.663 265.732V265.732ZM439.709 242.461C428.593 241.297 426.886 250.506 419.775 297.665H399.925L400.834 292.472C404.272 268.576 408.7 244.403 411.193 220.551H429.415C429.58 224.476 428.719 228.294 428.232 232.262C434.292 223.141 438.969 218.309 447.262 220.08C444.813 224.35 441.502 232.779 439.709 242.461V242.461ZM499.3 296.203C492.001 298.271 487.255 299.008 481.772 299.008C460.406 299.008 447.088 283.264 447.088 258.079C447.088 224.176 465.484 200.5 491.791 200.5C500.458 200.5 510.69 204.253 513.601 205.416L510.35 225.988C503.263 222.321 498.117 220.853 492.61 220.853C477.785 220.853 467.421 235.498 467.421 256.391C467.421 270.777 474.385 279.489 485.922 279.489C490.824 279.489 496.221 277.919 502.781 274.617L499.3 296.203V296.203ZM569.354 256.741C567.646 267.887 563.938 291.823 563.427 297.668H546.997L547.376 289.668C542.334 295.985 535.624 299.008 526.552 299.008C515.795 299.008 508.409 290.404 508.409 277.959C508.409 259.153 521.258 248.222 543.259 248.222C545.517 248.222 548.407 248.437 551.363 248.825C551.968 246.259 552.12 245.181 552.12 243.8C552.12 238.712 548.682 236.793 539.419 236.793C529.697 236.663 521.704 239.144 518.41 240.265C518.599 238.972 521.154 222.927 521.154 222.927C531.046 219.952 537.584 218.83 544.883 218.83C561.948 218.83 570.981 226.636 570.956 241.43C570.999 245.396 570.347 250.291 569.354 256.741V256.741ZM593.277 297.665H573.446L574.355 292.472C577.793 268.576 582.203 244.403 584.691 220.551H602.918C603.107 224.476 602.241 228.294 601.758 232.262C607.81 223.141 612.454 218.309 620.78 220.08C618.293 224.35 615 232.779 613.229 242.461C602.114 241.297 600.387 250.506 593.277 297.665V297.665ZM656.435 297.665L657.381 290.487C651.916 296.42 646.329 299.008 639.072 299.008C624.64 299.008 615.108 286.304 615.108 267.027C615.108 241.339 629.89 219.733 647.398 219.733C655.081 219.733 660.942 222.925 666.368 230.236L670.754 202.828H690.334L675.224 297.665H656.435Z" fill="white"/>
</g>
<defs>
<clipPath id="clip0">
<rect width="780" height="500" fill="white"/>
</clipPath>
</defs>
</svg>
