<svg width="780" height="500" viewBox="0 0 780 500" fill="none" xmlns="http://www.w3.org/2000/svg">
<g clip-path="url(#clip0)">
<path d="M740.8 0H41.8C18.7 0 0 19.1 0 42.6V458.9C0 482.4 18.7 501.5 41.7 501.5H740.7C763.7 501.5 782.4 482.4 782.4 458.9V42.6C782.5 19.1 763.8 0 740.8 0ZM291.1 347.5H231.1V233.5C231.1 231.3 229.3 229.5 227.1 229.5C225.1 229.5 223.5 230.9 223.2 232.8L188.1 347.5H145L110 232.7C109.7 230.9 108.1 229.5 106.1 229.5C103.9 229.5 102.1 231.3 102.1 233.5V347.5H42.1V151.5H93.6H109C120 151.5 131.6 160.1 134.8 170.6L164 266.1C165.5 270.9 167.8 270.8 169.3 266.1L198.5 170.6C201.7 160 213.3 151.5 224.3 151.5H239.6H291.1V347.5ZM514.1 347.5H454.1V231C454 229.1 452.5 227.5 450.5 227.5C449.1 227.5 448 228.2 447.4 229.4V229.5C447.4 229.6 447.3 229.7 447.3 229.8L398.3 334.9C395.2 341.7 386.8 347.2 379.2 347.6H319.2V151.6H379.2V265.6C379.2 267.8 381 269.6 383.2 269.6C384.6 269.6 385.8 268.9 386.5 267.9C386.7 267.5 386.9 267.2 387 266.7L434.7 164.3C437.9 157.4 446.5 151.9 454.1 151.6H514.1V347.5V347.5ZM672.1 284.5H604.1V348.5H544.1V240.5H734.2C725 266 700.7 284.3 672.1 284.5ZM736.7 230.5C736.7 230.5 632.5 230.5 632.4 230.5C581.4 230.5 539.6 195.6 536.1 151.5H671.9C708.4 151.8 737.9 181.4 737.9 218C737.9 222.3 737.5 226.5 736.7 230.5Z" fill="white"/>
</g>
<defs>
<clipPath id="clip0">
<rect width="780" height="500" fill="white"/>
</clipPath>
</defs>
</svg>
