<svg width="780" height="500" viewBox="0 0 780 500" fill="none" xmlns="http://www.w3.org/2000/svg">
<g clip-path="url(#clip0)">
<path d="M622.48 238.88C618.441 235.283 613.369 233.483 607.268 233.483C599.197 233.483 592.43 236.264 586.983 241.826C581.529 247.387 578.803 254.208 578.803 262.272C578.803 268.385 580.766 273.184 584.693 276.668C588.621 280.16 593.742 281.902 600.07 281.902C607.923 281.902 614.629 279.176 620.19 273.723C625.752 268.274 628.533 261.619 628.534 253.768C628.533 247.443 626.512 242.48 622.48 238.88V238.88ZM250.82 238.88C246.781 235.283 241.71 233.483 235.605 233.483C227.533 233.483 220.77 236.264 215.322 241.826C209.867 247.387 207.141 254.208 207.141 262.272C207.141 268.385 209.048 273.184 212.868 276.668C216.681 280.16 221.753 281.902 228.082 281.902C236.146 281.902 242.966 279.236 248.529 273.885C254.091 268.547 256.872 261.838 256.872 253.768C256.872 247.443 254.852 242.48 250.82 238.88V238.88Z" fill="white"/>
<path d="M725 0H55C24.673 0 0 24.673 0 55V446C0 476.327 24.673 501 55 501H725C755.325 501 780 476.327 780 446V55C780 24.673 755.325 0 725 0ZM120.777 257.697C120.123 257.697 118.594 257.591 116.197 257.373C113.795 257.156 111.723 257.046 109.98 257.046C108.232 257.046 106.381 257.209 104.418 257.533C102.455 257.859 100.818 258.573 99.511 259.663C98.202 260.755 97.435 262.173 97.22 263.917L91.332 299.902C90.892 304.049 88.495 306.118 84.134 306.118H59.27C57.961 306.118 56.869 305.575 55.999 304.482C55.125 303.392 54.797 302.193 55.018 300.882L76.283 167.4C76.718 163.258 79.008 161.185 83.152 161.185H135.499C149.02 161.185 159.979 164.079 168.379 169.853C176.774 175.636 180.976 184.96 180.976 197.827C180.976 216.588 175.628 231.254 164.944 241.831C154.255 252.412 139.533 257.697 120.777 257.697V257.697ZM295.481 214.511L282.068 299.9C281.414 304.047 279.011 306.116 274.871 306.116H252.297C249.461 306.116 248.044 304.376 248.044 300.882C248.044 298.921 248.478 296.63 249.353 294.014C245.427 298.377 240.192 301.866 233.649 304.483C227.107 307.098 220.778 308.409 214.674 308.409C202.022 308.409 191.937 304.596 184.412 296.958C176.887 289.327 173.124 279.077 173.124 266.206C173.124 250.286 178.629 236.433 189.645 224.655C200.659 212.877 214.019 206.987 229.723 206.987C244.554 206.987 254.915 211.354 260.804 220.075C261.459 212.877 263.309 209.277 266.367 209.277H291.231C292.538 209.277 293.627 209.824 294.501 210.913C295.37 212.004 295.696 213.202 295.481 214.511V214.511ZM338.342 339.814H313.15C310.313 339.814 308.897 338.398 308.897 335.56C308.897 333.818 317.837 320.732 335.723 296.301C335.504 295.435 332.943 287.796 328.035 273.404C323.462 259.987 318.882 246.572 314.296 233.159C310.044 220.727 307.917 214.296 307.917 213.856C307.917 212.769 308.351 211.73 309.226 210.75C310.093 209.768 311.074 209.276 312.167 209.276H336.708C340.412 209.276 342.81 211.025 343.904 214.512L358.3 263.587L392.979 212.547C394.502 210.372 396.464 209.276 398.868 209.276H424.06C425.147 209.276 426.13 209.769 427.005 210.75C427.871 211.73 428.311 212.768 428.311 213.856C428.311 214.953 428.093 215.713 427.659 216.146L344.232 336.545C342.701 338.727 340.74 339.814 338.342 339.814V339.814ZM492.432 257.697C491.782 257.697 490.25 257.591 487.852 257.373C485.452 257.156 483.381 257.046 481.638 257.046C479.889 257.046 478.037 257.209 476.075 257.533C474.11 257.859 472.476 258.573 471.168 259.663C469.857 260.755 469.094 262.173 468.878 263.917L462.987 301.866C462.113 304.702 460.369 306.118 457.753 306.118H430.927C429.617 306.118 428.522 305.575 427.656 304.482C426.781 303.392 426.454 302.193 426.676 300.882L447.94 167.4C448.373 163.258 450.773 161.185 455.138 161.185H507.157C520.68 161.185 531.638 164.079 540.036 169.853C548.432 175.636 552.633 184.96 552.632 197.827C552.632 216.588 547.287 231.254 536.601 241.831C525.91 252.412 511.191 257.697 492.432 257.697V257.697ZM667.141 214.511L653.726 299.9C653.073 304.047 650.67 306.116 646.532 306.116H623.956C621.116 306.116 619.702 304.376 619.702 300.882C619.702 300.016 619.917 298.704 620.357 296.956C620.79 295.212 621.012 294.232 621.012 294.014C617.298 298.377 612.177 301.866 605.633 304.483C599.09 307.098 592.655 308.409 586.332 308.409C573.679 308.409 563.592 304.596 556.066 296.958C548.543 289.327 544.781 279.077 544.781 266.206C544.781 250.286 550.286 236.433 561.302 224.655C572.313 212.877 585.675 206.987 601.379 206.987C616.431 206.987 626.784 211.354 632.462 220.075C633.115 212.877 634.965 209.277 638.02 209.277H662.886C664.195 209.277 665.282 209.824 666.157 210.913C667.029 212.004 667.356 213.202 667.141 214.511V214.511ZM725.05 166.09L703.784 299.903C703.343 304.05 701.052 306.119 696.913 306.119H675.318C674.011 306.119 672.916 305.628 672.048 304.647C671.174 303.666 670.736 302.634 670.736 301.539L671.064 300.885L692.331 164.786C692.764 162.386 694.18 161.186 696.585 161.186H720.793C723.626 161.186 725.048 162.713 725.049 165.766V166.09H725.05Z" fill="white"/>
<path d="M509.774 195.044C507.157 192.754 504.427 191.394 501.596 190.955C498.756 190.52 494.939 190.302 490.142 190.302H484.255C481.852 190.302 480.435 191.502 480.003 193.899L474.44 228.906L484.91 228.579C494.506 228.579 501.703 226.944 506.503 223.673C511.299 220.399 513.7 214.185 513.7 205.023C513.699 200.662 512.393 197.334 509.774 195.044V195.044ZM137.465 194.064C133.539 191.56 127.21 190.303 118.49 190.303H112.271C109.871 190.303 108.454 191.503 108.019 193.9L102.456 228.907L113.253 228.58C121.758 228.58 128.301 227.385 132.882 224.982C137.462 222.582 140.294 217.568 141.388 209.933C142.698 201.865 141.389 196.574 137.465 194.064Z" fill="white"/>
</g>
<defs>
<clipPath id="clip0">
<rect width="780" height="500" fill="white"/>
</clipPath>
</defs>
</svg>
