<svg width="780" height="500" viewBox="0 0 780 500" fill="none" xmlns="http://www.w3.org/2000/svg">
<g clip-path="url(#clip0)">
<path d="M486.1 347.13H500.13L504.13 333.22H490.2L486.1 347.13Z" fill="white"/>
<path d="M497.32 308.85L492.462 325.319C492.462 325.319 497.753 322.537 500.668 321.646C503.583 320.979 507.9 320.421 507.9 320.421L511.248 308.961H497.214L497.32 308.85V308.85Z" fill="white"/>
<path d="M504.18 285.26L499.699 299.167C499.699 299.167 504.702 297.014 507.515 296.329C510.328 295.642 514.498 295.447 514.498 295.447L517.728 285.357H504.283L504.18 285.26V285.26Z" fill="white"/>
<path d="M418.18 299.17C418.18 299.17 423.47 294.165 432.54 292.608C434.591 292.163 447.547 292.383 447.547 292.383L449.491 285.707H422.175L418.179 299.282L418.18 299.17V299.17Z" fill="white"/>
<path d="M443.87 304.29H416.77L415.151 309.965H438.688C441.495 309.631 442.035 310.076 442.25 309.854L443.978 304.291H443.87V304.29V304.29Z" fill="white"/>
<path d="M367.78 221.44C367.456 223.442 365.728 230.898 363.461 234.014C361.841 236.35 360.005 237.797 357.846 237.797C357.199 237.797 353.527 237.797 353.42 232.122C353.42 229.341 353.959 226.447 354.607 223.332C356.551 214.319 358.926 206.865 364.864 206.865C369.507 206.864 369.83 212.427 367.78 221.44Z" fill="white"/>
<path d="M556.26 222.93C555.828 224.821 554.1 232.387 551.833 235.503C550.32 237.728 546.65 239.175 544.6 239.175C543.953 239.175 540.389 239.175 540.173 233.613C540.173 230.83 540.712 227.938 541.36 224.822C543.304 216.032 545.68 208.577 551.618 208.577C556.261 208.577 558.311 214.029 556.261 223.042V222.93H556.26V222.93Z" fill="white"/>
<path d="M511.29 185.45C509.995 191.57 506.108 196.8 501.143 199.247C497.039 201.36 492.073 201.583 486.891 201.583H483.543L483.759 200.248C483.759 200.248 489.914 172.654 489.914 172.765L490.129 171.318L490.237 170.206L492.719 170.429C492.719 170.429 505.459 171.541 505.676 171.541C510.643 173.545 512.803 178.663 511.29 185.45V185.45Z" fill="white"/>
<path d="M740.77 0H41.7201C18.6851 0 -0.00488281 19.07 -0.00488281 42.596V458.906C-0.00488281 482.436 18.6761 501.502 41.7201 501.502H740.77C763.805 501.502 782.496 482.432 782.496 458.906V42.596C782.496 19.066 763.814 0 740.77 0V0ZM553.13 196.45C555.976 197.581 557.919 199.323 559.292 201.384C559.354 200.904 559.417 200.417 559.48 199.92L560.128 199.364C569.089 198.027 571.571 197.694 580.965 195.914L581.181 196.692C579.452 204.036 577.834 211.269 576.106 218.5C572.652 233.743 571.465 241.533 570.169 249.544L569.305 250.211V250.099C560.235 249.988 557.645 249.988 549.329 250.433L548.79 249.766L549.511 246.968C546.651 249.306 543.578 250.891 540.281 251.08C536.934 251.303 533.589 250.857 529.917 249.189C518.364 244.627 520.199 231.497 521.82 224.376C523.33 217.255 526.138 209.801 531.753 204.46C539.741 196.895 549.135 194.78 553.13 196.45V196.45ZM465.185 187.561C465.185 187.45 471.015 159.856 471.015 159.856C471.015 159.856 471.447 157.743 471.662 156.518C474.252 156.851 480.73 156.963 496.927 156.741L503.189 156.629C515.821 156.741 526.726 156.852 532.232 164.752C534.392 167.756 535.147 171.539 535.147 175.434C535.147 178.437 534.715 181.33 534.176 183.778C531.908 193.792 526.942 202.137 519.601 207.701C508.803 215.824 495.092 215.824 482.891 215.824H481.594C480.731 216.379 479.868 217.604 479.868 217.604C479.76 218.049 476.952 230.066 476.952 230.066C476.844 230.066 473.606 246.421 473.065 249.203C470.582 248.869 464.859 248.869 450.715 249.091C451.365 246.31 465.185 187.561 465.185 187.561V187.561ZM393.479 229.5C397.15 212.699 398.014 206.246 399.092 197.678L399.739 197.233C408.379 196.009 410.537 195.675 419.821 193.784L420.578 194.674L419.282 200.015C420.795 199.014 422.414 198.012 423.926 197.233C428.353 195.007 433.211 194.34 435.908 194.34C440.012 194.34 444.439 195.565 446.382 200.46C448.11 204.799 446.923 210.14 444.547 220.711L443.359 226.052C440.877 237.846 440.552 239.96 439.255 247.971L438.393 248.638L438.5 248.75C431.051 248.638 428.459 248.638 419.714 249.083L419.39 248.415C420.146 244.965 421.01 241.628 421.765 238.178L422.736 233.505C424.357 226.274 425.976 217.705 426.084 215.147C426.3 213.589 426.731 209.695 422.521 209.695C420.686 209.695 418.744 210.584 416.908 211.474C415.936 215.369 413.776 226.273 412.696 231.168C410.645 241.627 410.429 242.851 409.458 247.97L408.811 248.637C401.146 248.526 398.447 248.526 389.593 248.971L389.161 248.192C390.673 241.963 392.075 235.731 393.479 229.5V229.5ZM400.979 279.141L397.416 291.268H370.856L367.941 293.829C366.645 295.054 366.322 294.608 364.701 295.499C363.191 296.276 360.059 297.834 355.956 297.834H347.427L350.881 286.152H353.473C355.633 286.152 357.145 285.928 357.9 285.484C358.764 284.927 359.736 283.704 360.707 281.701L365.565 272.577H384.892L381.601 279.141H400.979V279.141ZM234.629 215.045C232.037 224.725 229.015 235.74 217.462 242.75C210.876 246.866 201.051 249.204 190.578 249.204C182.48 249.204 168.12 247.869 163.046 238.745C161.426 235.962 160.671 232.514 160.671 228.397L162.505 214.376L163.478 210.149L174.492 159.743C174.492 159.743 175.031 156.962 175.14 156.517C175.356 156.85 179.133 157.074 200.188 156.85C200.188 156.961 200.188 157.184 200.081 157.517C198.138 163.414 187.34 208.144 187.34 208.144C187.34 208.254 185.289 221.496 185.289 221.496L185.398 223.722C186.045 230.286 189.932 233.735 196.734 233.735C200.944 233.735 204.616 232.512 207.747 229.841C213.145 225.279 214.765 218.157 217.033 208.255C217.033 208.255 227.398 159.187 227.937 156.517V156.629C229.448 156.963 233.875 157.074 249.207 156.963C249.098 157.074 249.098 157.296 248.991 157.63C247.048 163.638 235.927 210.036 235.927 210.036L234.629 215.045V215.045ZM295.568 220.711L294.381 226.052C292.005 237.846 291.574 239.96 290.277 247.971L289.414 248.638L289.521 248.75H289.522H289.521C282.071 248.638 279.372 248.638 270.627 249.083L270.302 248.415C271.058 244.965 271.921 241.628 272.569 238.178L273.649 233.505C275.268 226.274 276.78 217.705 276.996 215.147C277.212 213.589 277.643 209.695 273.324 209.695C271.489 209.695 269.654 210.584 267.711 211.474C266.63 215.369 264.579 226.273 263.499 231.168C261.339 241.627 261.232 242.851 260.26 247.97L259.612 248.637C251.946 248.526 249.248 248.526 240.394 248.971L239.962 248.192C241.474 241.961 242.877 235.73 244.281 229.499C247.951 212.698 248.924 206.245 249.894 197.677L250.65 197.232C259.288 196.008 261.339 195.674 270.732 193.783L271.487 194.673L270.084 200.014C271.703 199.013 273.215 198.011 274.834 197.232C279.261 195.006 284.12 194.339 286.819 194.339C290.921 194.339 295.456 195.564 297.292 200.459C299.023 204.8 297.942 210.14 295.568 220.711V220.711ZM327.291 217.402C326.427 221.074 325.563 224.745 324.808 228.418C323.187 236.207 322.432 239.1 322.109 241.213C321.677 243.216 321.568 244.218 320.92 248.223L320.488 248.556L320.056 248.89L319.84 248.778C315.306 248.778 312.391 248.667 309.585 248.778C306.777 248.778 304.078 249.001 299.867 249.112L299.651 248.778L299.435 248.333C300.623 243.882 301.163 242.325 301.81 240.767C302.35 239.209 302.889 237.652 303.97 233.09C305.264 227.192 306.129 223.075 306.668 219.403C307.316 215.953 307.64 212.95 308.072 209.5L308.395 209.278L308.719 208.944C313.255 208.276 316.062 207.831 318.977 207.386C321.893 206.941 324.915 206.385 329.558 205.495L329.774 205.94L329.881 206.385L327.291 217.402V217.402ZM328.171 202.045C323.205 205.606 315.755 206.274 311.653 203.825C307.442 201.155 307.981 196.26 312.948 192.81C317.915 189.25 325.365 188.47 329.575 191.03C333.786 193.588 333.137 198.484 328.171 202.045V202.045ZM335.058 222.889C336.57 215.768 339.269 208.312 344.991 202.861C352.981 195.295 363.129 194.85 367.449 194.85C374.574 194.85 381.484 196.518 385.371 201.637C387.854 204.974 389.905 210.538 387.315 222.333H387.421C386.557 226.005 384.29 234.684 379.216 240.47C372.63 247.591 363.884 250.038 355.355 250.038C352.008 250.038 346.825 249.594 343.263 248.037C331.602 243.139 333.438 230.121 335.058 222.889V222.889ZM375.035 364.019H353.225C351.499 364.019 350.203 363.796 348.259 363.351C346.423 362.907 345.56 362.016 344.805 360.792C344.048 359.457 342.752 358.454 343.616 355.562L349.878 334.2H339.082L342.645 321.961H353.441L356.356 312.059H345.561L349.017 300.374L348.801 300.264H396.197L392.741 311.948H373.847L370.933 321.849H390.367L386.804 333.867H367.477L362.727 350.001C362.188 351.781 367.37 352.004 369.205 352.004L378.922 350.668L375.035 364.019ZM455.299 330.189C454.653 332.526 454.112 334.307 452.384 335.864C450.549 337.423 448.498 339.091 443.532 339.091L434.354 339.536L434.246 347.993C434.139 350.328 434.787 350.105 435.109 350.551C435.542 350.996 435.865 351.109 436.297 351.331L439.212 351.107L447.959 350.663L444.287 363.125H434.246C427.228 363.125 421.937 362.901 420.317 361.567C418.59 360.454 418.375 359.119 418.375 356.671L419.021 323.514H435.109L434.893 330.301H438.779C440.076 330.301 441.049 330.19 441.588 329.856C442.127 329.523 442.452 328.966 442.668 328.187L444.287 322.847H456.766L456.811 322.624L456.92 322.847H456.766L455.299 330.189V330.189ZM456.719 314.416C455.749 315.974 454.56 317.42 452.186 318.755C449.918 319.98 447.866 320.758 445.923 320.87C444.195 320.98 441.388 321.093 437.717 321.093H411.913L404.679 345.905C404.033 348.352 403.708 349.575 404.14 350.243C404.463 350.801 405.435 351.468 406.623 351.468L417.959 350.356L414.072 363.93H401.333C397.229 363.93 394.314 363.819 392.263 363.706C390.32 363.485 388.267 363.706 386.864 362.595C385.677 361.483 383.842 360.036 383.949 358.589C384.058 357.254 384.597 355.028 385.462 351.913L408.674 272.69H425.194L422.819 281.258C422.819 281.258 428.001 276.919 431.672 275.36C435.343 274.025 443.548 272.69 443.548 272.69L470.324 272.58L461.147 303.957C459.635 309.297 457.799 312.747 456.719 314.416V314.416ZM589.329 308.975H570.435L567.52 318.656H586.414L583.282 329.225H562.877L559.207 333.675H567.52L569.571 347.028C569.787 348.363 569.787 349.253 570.217 349.81C570.651 350.255 573.134 350.478 574.536 350.478H577.019L573.133 363.496H566.762C565.791 363.496 564.279 363.385 562.228 363.385C560.284 363.161 558.99 362.049 557.694 361.382C556.506 360.825 554.779 359.379 554.347 356.82L552.403 343.467L543.118 356.597C540.202 360.713 536.209 363.941 529.406 363.941H516.451L517.682 359.812H513.411L512.223 363.707H494.947L496.136 359.812H461.154L464.608 348.02H468.17L486.526 285.264L490.196 272.579H507.796L505.96 278.921C505.96 278.921 510.602 275.473 515.138 274.247C518.719 273.258 536.084 272.779 542.582 272.629L542.533 272.579H561.319L561.535 279.811C561.429 281.035 562.399 281.591 564.666 281.591H568.445L564.991 293.497H554.842C546.097 294.165 542.749 290.27 542.965 285.931L542.819 279.981L541.266 285.152H535.22L535.327 285.263L517.188 347.016H522.047L520.466 352.367H524.871C526.274 352.367 527.57 351.812 528.541 351.255C529.513 350.81 530.377 350.365 531.24 348.92L544.844 329.225H526.92L529.943 318.656H550.457L553.372 308.975H533.184L536.637 297.069H592.782L589.329 308.975V308.975ZM602.119 271.228L600.715 272.898H600.567L593.452 285.487C591.183 289.826 586.865 293.164 580.171 293.164L568.618 292.941L571.966 281.37H574.233C575.421 281.37 576.284 281.259 576.932 280.925C577.58 280.702 577.905 280.257 578.444 279.59L582.763 272.58H583.312L583.226 272.341C589.056 263.33 590.458 259.437 596.506 249.199C595.427 237.738 594.886 234.067 594.023 226.501C593.483 222.05 592.835 217.488 592.295 212.925C591.215 203.69 591.432 205.025 590.352 199.129L590.243 199.017C590.243 198.684 590.243 198.35 590.352 198.016L590.998 197.348C599.853 196.124 600.067 195.79 609.785 193.899L610.54 194.789L611.837 220.381C611.945 220.938 611.945 221.271 611.945 221.828C617.018 210.034 616.911 213.26 623.174 198.24V198.351C623.174 198.128 623.281 198.018 623.281 197.906L623.928 197.238C632.35 196.014 634.077 195.68 643.255 193.789L644.01 194.679L644.119 194.789C644.119 194.788 606.977 260.436 602.119 271.228Z" fill="white"/>
</g>
<defs>
<clipPath id="clip0">
<rect width="780" height="500" fill="white"/>
</clipPath>
</defs>
</svg>
