<svg width="780" height="500" viewBox="0 0 780 500" fill="none" xmlns="http://www.w3.org/2000/svg">
<g clip-path="url(#clip0)">
<path d="M736.04 0H41.46C18.573 0 0.00195312 18.994 0.00195312 42.426V457.076C0.00195312 480.513 18.564 499.502 41.46 499.502H736.04C758.928 499.502 777.499 480.508 777.499 457.076V42.426C777.499 18.99 758.937 0 736.04 0V0ZM154.42 353.64L105.243 173.32C88.239 163.675 68.836 155.923 47.139 150.55L47.845 146.231H137.041C149.056 146.688 158.768 150.611 162.116 163.758L181.508 259.151L181.512 259.162L187.282 287.932L241.437 146.362H300.031L212.946 353.562L154.42 353.632V353.64ZM343.12 353.817H287.829L287.828 353.816L322.413 146.206H377.728L343.12 353.816V353.817ZM439.379 356.897C414.572 356.637 390.682 351.617 377.761 345.822L385.525 299.347L392.651 302.646C410.818 310.397 422.58 313.543 444.719 313.543C460.618 313.543 477.676 307.186 477.813 293.271C477.916 284.183 470.677 277.694 449.147 267.518C428.165 257.586 400.37 240.946 400.677 211.115C401.005 170.76 439.506 142.601 494.164 142.601C515.609 142.601 532.782 147.115 543.741 151.321L536.243 196.319L531.285 193.922C521.076 189.717 507.973 185.682 489.886 185.968C468.231 185.968 458.208 195.197 458.208 203.826C458.082 213.55 469.923 219.96 489.258 229.562C521.171 244.38 535.908 262.353 535.698 285.969C535.27 329.063 497.524 356.897 439.379 356.897V356.897ZM679.029 353.883C679.029 353.883 673.955 330.042 672.3 322.775C664.233 322.775 607.806 322.685 601.458 322.685C599.311 328.3 589.812 353.883 589.812 353.883H531.726L613.877 163.623C619.692 150.104 629.601 146.407 642.844 146.407H685.586L730.358 353.887H679.029V353.883Z" fill="white"/>
<path d="M617.38 280.22C621.954 268.257 639.418 222.184 639.418 222.184C639.091 222.738 643.958 210.165 646.751 202.371L650.492 220.269C650.492 220.269 661.082 269.826 663.296 280.218H617.379L617.38 280.22V280.22Z" fill="white"/>
</g>
<defs>
<clipPath id="clip0">
<rect width="780" height="500" fill="white"/>
</clipPath>
</defs>
</svg>
