<svg width="124" height="40" viewBox="0 0 124 40" fill="none" xmlns="http://www.w3.org/2000/svg">
<g clip-path="url(#clip0)">
<path d="M53.5575 39.423H43.5454L49.8077 0.701889H59.8192L53.5575 39.423Z" fill="white"/>
<path d="M89.8523 1.64851C87.8775 0.865044 84.7452 0 80.8723 0C70.985 0 64.0225 5.27238 63.9798 12.8103C63.8977 18.3718 68.9648 21.4607 72.7545 23.3151C76.6281 25.21 77.9448 26.4468 77.9448 28.1358C77.9054 30.7298 74.8148 31.9256 71.9322 31.9256C67.9349 31.9256 65.7931 31.3091 62.5383 29.8659L61.2199 29.2472L59.8188 37.9392C62.1671 39.009 66.4934 39.9584 70.985 40C81.4904 40 88.3297 34.8092 88.4107 26.7764C88.4507 22.3685 85.7751 18.991 80.0067 16.231C76.5049 14.4594 74.3603 13.2647 74.3603 11.452C74.4014 9.804 76.1742 8.11607 80.1271 8.11607C83.382 8.0334 85.7734 8.81577 87.5851 9.59869L88.4907 10.0099L89.8523 1.64851V1.64851Z" fill="white"/>
<path d="M103.159 25.7054C103.983 23.481 107.156 14.8716 107.156 14.8716C107.114 14.9543 107.979 12.6061 108.473 11.1645L109.173 14.501C109.173 14.501 111.069 23.7695 111.481 25.7054C109.916 25.7054 105.136 25.7054 103.159 25.7054ZM115.517 0.701889H107.773C105.385 0.701889 103.57 1.40159 102.54 3.91459L87.6685 39.4224H98.1738C98.1738 39.4224 99.9033 34.6433 100.275 33.614C101.428 33.614 111.647 33.614 113.13 33.614C113.417 34.9734 114.324 39.4224 114.324 39.4224H123.595L115.517 0.701889V0.701889Z" fill="white"/>
<path d="M35.1832 0.701889L25.3781 27.106L24.3067 21.7509C22.4939 15.5719 16.8087 8.85848 10.4644 5.5204L19.4455 39.3819H30.0329L45.7701 0.701889H35.1832V0.701889Z" fill="white"/>
<path d="M16.2732 0.701889H0.164795L0 1.48426C12.5656 4.69751 20.8875 12.4429 24.3066 21.7525L20.8048 3.95675C20.2283 1.48371 18.4566 0.783466 16.2732 0.701889Z" fill="white"/>
</g>
<defs>
<clipPath id="clip0">
<rect width="123.595" height="40" fill="white"/>
</clipPath>
</defs>
</svg>
