<svg width="16" height="16" viewBox="0 0 16 16" fill="none" xmlns="http://www.w3.org/2000/svg">
<g clip-path="url(#clip0)">
<path d="M15.9528 7.44149C15.6567 5.46503 13.8563 4.0567 11.8558 4.0567H9.55926C9.14316 4.0567 8.79908 4.40078 8.79908 4.81688C8.79908 5.23298 9.14316 5.57706 9.55926 5.57706H11.8798C13.1601 5.57706 14.3124 6.48927 14.4564 7.76157C14.5924 8.90584 13.9443 9.91407 12.9761 10.3382L14.0963 11.4584C15.4006 10.6422 16.2088 9.12989 15.9528 7.44149V7.44149ZM1.69343 1.30406C1.38135 0.991989 0.877236 0.991989 0.565163 1.30406C0.25309 1.61613 0.25309 2.12025 0.565163 2.43233L2.48561 4.35277C0.933249 4.99292 -0.131 6.56929 0.0130339 8.38571C0.181073 10.4982 2.06951 12.0586 4.18201 12.0586H6.43853C6.85463 12.0586 7.19871 11.7145 7.19871 11.2984C7.19871 10.8823 6.85463 10.5382 6.43853 10.5382H4.12599C2.82169 10.5382 1.64541 9.58599 1.52539 8.28169C1.40536 6.90537 2.41359 5.7451 3.7259 5.60107L5.40629 7.28146C5.06221 7.35347 4.79815 7.64954 4.79815 8.01763V8.09765C4.79815 8.51374 5.14223 8.85782 5.55833 8.85782H6.98266L8.79908 10.6742V12.0586H10.1834L12.824 14.6992C13.1361 15.0113 13.6402 15.0113 13.9523 14.6992C14.2644 14.3871 14.2644 13.883 13.9523 13.5709L1.69343 1.30406ZM11.1996 8.01763C11.1996 7.60153 10.8556 7.25745 10.4395 7.25745H9.91134L11.1036 8.44973C11.1596 8.34571 11.1996 8.22568 11.1996 8.09765V8.01763V8.01763Z" fill="#DB2840"/>
</g>
<defs>
<clipPath id="clip0">
<rect width="16" height="16" fill="white"/>
</clipPath>
</defs>
</svg>
