<svg width="16" height="16" viewBox="0 0 16 16" fill="none" xmlns="http://www.w3.org/2000/svg">
<path d="M12 4H9.6C9.16 4 8.8 4.36 8.8 4.8C8.8 5.24 9.16 5.6 9.6 5.6H12C13.32 5.6 14.4 6.68 14.4 8C14.4 9.32 13.32 10.4 12 10.4H9.6C9.16 10.4 8.8 10.76 8.8 11.2C8.8 11.64 9.16 12 9.6 12H12C14.208 12 16 10.208 16 8C16 5.792 14.208 4 12 4ZM4.8 8C4.8 8.44 5.16 8.8 5.6 8.8H10.4C10.84 8.8 11.2 8.44 11.2 8C11.2 7.56 10.84 7.2 10.4 7.2H5.6C5.16 7.2 4.8 7.56 4.8 8ZM6.4 10.4H4C2.68 10.4 1.6 9.32 1.6 8C1.6 6.68 2.68 5.6 4 5.6H6.4C6.84 5.6 7.2 5.24 7.2 4.8C7.2 4.36 6.84 4 6.4 4H4C1.792 4 0 5.792 0 8C0 10.208 1.792 12 4 12H6.4C6.84 12 7.2 11.64 7.2 11.2C7.2 10.76 6.84 10.4 6.4 10.4Z" fill="#BCBCBA"/>
</svg>
