<svg width="16" height="16" viewBox="0 0 16 16" fill="none" xmlns="http://www.w3.org/2000/svg">
<path d="M11.43 6H10.8586V4.85714C10.8586 3.28 9.57857 2 8.00143 2C6.42429 2 5.14429 3.28 5.14429 4.85714V6H4.57286C3.94429 6 3.43 6.51429 3.43 7.14286V12.8571C3.43 13.4857 3.94429 14 4.57286 14H11.43C12.0586 14 12.5729 13.4857 12.5729 12.8571V7.14286C12.5729 6.51429 12.0586 6 11.43 6ZM8.00143 11.1429C7.37286 11.1429 6.85857 10.6286 6.85857 10C6.85857 9.37143 7.37286 8.85714 8.00143 8.85714C8.63 8.85714 9.14429 9.37143 9.14429 10C9.14429 10.6286 8.63 11.1429 8.00143 11.1429ZM6.28714 6V4.85714C6.28714 3.90857 7.05286 3.14286 8.00143 3.14286C8.95 3.14286 9.71571 3.90857 9.71571 4.85714V6H6.28714Z" fill="#1D1E1F"/>
</svg>
